  0
SECTION
  2
HEADER
  9
$ACADVER
  1
AC1015
  9
$ACADMAINTVER
 70
     6
  9
$DWGCODEPAGE
  3
ANSI_932
  9
$INSBASE
 10
0.0
 20
0.0
 30
0.0
  9
$EXTMIN
 10
-1.000000000000018
 20
-12.0
 30
0.0
  9
$EXTMAX
 10
1.000000000000018
 20
12.0
 30
0.0
  9
$LIMMIN
 10
0.0
 20
0.0
  9
$LIMMAX
 10
420.0
 20
297.0
  9
$ORTHOMODE
 70
     0
  9
$REGENMODE
 70
     1
  9
$FILLMODE
 70
     1
  9
$QTEXTMODE
 70
     0
  9
$MIRRTEXT
 70
     1
  9
$LTSCALE
 40
0.25
  9
$ATTMODE
 70
     1
  9
$TEXTSIZE
 40
5.0
  9
$TRACEWID
 40
0.05
  9
$TEXTSTYLE
  7
Standard
  9
$CLAYER
  8
0
  9
$CELTYPE
  6
ByLayer
  9
$CECOLOR
 62
   256
  9
$CELTSCALE
 40
1.0
  9
$DISPSILH
 70
     0
  9
$DIMSCALE
 40
1.0
  9
$DIMASZ
 40
4.0
  9
$DIMEXO
 40
2.0
  9
$DIMDLI
 40
10.0
  9
$DIMRND
 40
0.0
  9
$DIMDLE
 40
0.0
  9
$DIMEXE
 40
2.0
  9
$DIMTP
 40
0.0
  9
$DIMTM
 40
0.0
  9
$DIMTXT
 40
3.5
  9
$DIMCEN
 40
0.09
  9
$DIMTSZ
 40
0.0
  9
$DIMTOL
 70
     0
  9
$DIMLIM
 70
     0
  9
$DIMTIH
 70
     0
  9
$DIMTOH
 70
     0
  9
$DIMSE1
 70
     0
  9
$DIMSE2
 70
     0
  9
$DIMTAD
 70
     3
  9
$DIMZIN
 70
     8
  9
$DIMBLK
  1

  9
$DIMASO
 70
     1
  9
$DIMSHO
 70
     1
  9
$DIMPOST
  1

  9
$DIMAPOST
  1

  9
$DIMALT
 70
     0
  9
$DIMALTD
 70
     2
  9
$DIMALTF
 40
25.4
  9
$DIMLFAC
 40
1.0
  9
$DIMTOFL
 70
     1
  9
$DIMTVP
 40
0.7
  9
$DIMTIX
 70
     0
  9
$DIMSOXD
 70
     0
  9
$DIMSAH
 70
     0
  9
$DIMBLK1
  1

  9
$DIMBLK2
  1

  9
$DIMSTYLE
  2
Standard
  9
$DIMCLRD
 70
     0
  9
$DIMCLRE
 70
     0
  9
$DIMCLRT
 70
     0
  9
$DIMTFAC
 40
0.5
  9
$DIMGAP
 40
0.09
  9
$DIMJUST
 70
     0
  9
$DIMSD1
 70
     0
  9
$DIMSD2
 70
     0
  9
$DIMTOLJ
 70
     1
  9
$DIMTZIN
 70
     8
  9
$DIMALTZ
 70
     0
  9
$DIMALTTZ
 70
     0
  9
$DIMUPT
 70
     1
  9
$DIMDEC
 70
     2
  9
$DIMTDEC
 70
     4
  9
$DIMALTU
 70
     2
  9
$DIMALTTD
 70
     2
  9
$DIMTXSTY
  7
Standard
  9
$DIMAUNIT
 70
     0
  9
$DIMADEC
 70
     0
  9
$DIMALTRND
 40
0.0
  9
$DIMAZIN
 70
     0
  9
$DIMDSEP
 70
    46
  9
$DIMATFIT
 70
     2
  9
$DIMFRAC
 70
     0
  9
$DIMLDRBLK
  1

  9
$DIMLUNIT
 70
     2
  9
$DIMLWD
 70
    -2
  9
$DIMLWE
 70
    -2
  9
$DIMTMOVE
 70
     2
  9
$LUNITS
 70
     2
  9
$LUPREC
 70
     4
  9
$SKETCHINC
 40
0.1
  9
$FILLETRAD
 40
0.5
  9
$AUNITS
 70
     0
  9
$AUPREC
 70
     0
  9
$MENU
  1
.
  9
$ELEVATION
 40
0.0
  9
$PELEVATION
 40
0.0
  9
$THICKNESS
 40
0.0
  9
$LIMCHECK
 70
     0
  9
$CHAMFERA
 40
0.5
  9
$CHAMFERB
 40
0.5
  9
$CHAMFERC
 40
1.0
  9
$CHAMFERD
 40
0.0
  9
$SKPOLY
 70
     0
  9
$TDCREATE
 40
2457042.939039352
  9
$TDUCREATE
 40
2457042.564039352
  9
$TDUPDATE
 40
2457042.56404441
  9
$TDUUPDATE
 40
2457042.18904441
  9
$TDINDWG
 40
0.0000000116
  9
$TDUSRTIMER
 40
0.0000000116
  9
$USRTIMER
 70
     1
  9
$ANGBASE
 50
0.0
  9
$ANGDIR
 70
     0
  9
$PDMODE
 70
     0
  9
$PDSIZE
 40
0.0
  9
$PLINEWID
 40
0.0
  9
$SPLFRAME
 70
     0
  9
$SPLINETYPE
 70
     6
  9
$SPLINESEGS
 70
     8
  9
$HANDSEED
  5
1D5
  9
$SURFTAB1
 70
     6
  9
$SURFTAB2
 70
     6
  9
$SURFTYPE
 70
     6
  9
$SURFU
 70
     6
  9
$SURFV
 70
     6
  9
$UCSBASE
  2

  9
$UCSNAME
  2

  9
$UCSORG
 10
0.0
 20
0.0
 30
0.0
  9
$UCSXDIR
 10
1.0
 20
0.0
 30
0.0
  9
$UCSYDIR
 10
0.0
 20
1.0
 30
0.0
  9
$UCSORTHOREF
  2

  9
$UCSORTHOVIEW
 70
     0
  9
$UCSORGTOP
 10
0.0
 20
0.0
 30
0.0
  9
$UCSORGBOTTOM
 10
0.0
 20
0.0
 30
0.0
  9
$UCSORGLEFT
 10
0.0
 20
0.0
 30
0.0
  9
$UCSORGRIGHT
 10
0.0
 20
0.0
 30
0.0
  9
$UCSORGFRONT
 10
0.0
 20
0.0
 30
0.0
  9
$UCSORGBACK
 10
0.0
 20
0.0
 30
0.0
  9
$PUCSBASE
  2

  9
$PUCSNAME
  2

  9
$PUCSORG
 10
0.0
 20
0.0
 30
0.0
  9
$PUCSXDIR
 10
1.0
 20
0.0
 30
0.0
  9
$PUCSYDIR
 10
0.0
 20
1.0
 30
0.0
  9
$PUCSORTHOREF
  2

  9
$PUCSORTHOVIEW
 70
     0
  9
$PUCSORGTOP
 10
0.0
 20
0.0
 30
0.0
  9
$PUCSORGBOTTOM
 10
0.0
 20
0.0
 30
0.0
  9
$PUCSORGLEFT
 10
0.0
 20
0.0
 30
0.0
  9
$PUCSORGRIGHT
 10
0.0
 20
0.0
 30
0.0
  9
$PUCSORGFRONT
 10
0.0
 20
0.0
 30
0.0
  9
$PUCSORGBACK
 10
0.0
 20
0.0
 30
0.0
  9
$USERI1
 70
     0
  9
$USERI2
 70
     0
  9
$USERI3
 70
     0
  9
$USERI4
 70
     0
  9
$USERI5
 70
     0
  9
$USERR1
 40
0.0
  9
$USERR2
 40
0.0
  9
$USERR3
 40
0.0
  9
$USERR4
 40
0.0
  9
$USERR5
 40
0.0
  9
$WORLDVIEW
 70
     1
  9
$SHADEDGE
 70
     3
  9
$SHADEDIF
 70
    70
  9
$TILEMODE
 70
     1
  9
$MAXACTVP
 70
    64
  9
$PINSBASE
 10
0.0
 20
0.0
 30
0.0
  9
$PLIMCHECK
 70
     0
  9
$PEXTMIN
 10
0.0
 20
0.0
 30
0.0
  9
$PEXTMAX
 10
420.0
 20
297.0
 30
0.0
  9
$PLIMMIN
 10
0.0
 20
0.0
  9
$PLIMMAX
 10
420.0
 20
297.0
  9
$UNITMODE
 70
     0
  9
$VISRETAIN
 70
     1
  9
$PLINEGEN
 70
     0
  9
$PSLTSCALE
 70
     1
  9
$TREEDEPTH
 70
  3020
  9
$CMLSTYLE
  2
Standard
  9
$CMLJUST
 70
     0
  9
$CMLSCALE
 40
1.0
  9
$PROXYGRAPHICS
 70
     1
  9
$MEASUREMENT
 70
     1
  9
$CELWEIGHT
370
    -1
  9
$ENDCAPS
280
     0
  9
$JOINSTYLE
280
     0
  9
$LWDISPLAY
290
     0
  9
$INSUNITS
 70
     4
  9
$HYPERLINKBASE
  1

  9
$STYLESHEET
  1

  9
$XEDIT
290
     1
  9
$CEPSNTYPE
380
     0
  9
$PSTYLEMODE
290
     1
  9
$FINGERPRINTGUID
  2
{7EE21041-3DC6-45FD-9941-B19B881DD322}
  9
$VERSIONGUID
  2
{FAEB1C32-E019-11D5-929B-00C0DF256EC4}
  9
$EXTNAMES
290
     1
  9
$PSVPSCALE
 40
0.0
  9
$OLESTARTUP
290
     0
  0
ENDSEC
  0
SECTION
  2
CLASSES
  0
CLASS
  1
ACDBDICTIONARYWDFLT
  2
AcDbDictionaryWithDefault
  3
ObjectDBX Classes
 90
        0
280
     0
281
     0
  0
CLASS
  1
VISUALSTYLE
  2
AcDbVisualStyle
  3
ObjectDBX Classes
 90
     4095
280
     0
281
     0
  0
CLASS
  1
MATERIAL
  2
AcDbMaterial
  3
ObjectDBX Classes
 90
     1153
280
     0
281
     0
  0
CLASS
  1
DICTIONARYVAR
  2
AcDbDictionaryVar
  3
ObjectDBX Classes
 90
        0
280
     0
281
     0
  0
CLASS
  1
ACDBPLACEHOLDER
  2
AcDbPlaceHolder
  3
ObjectDBX Classes
 90
        0
280
     0
281
     0
  0
CLASS
  1
LAYOUT
  2
AcDbLayout
  3
ObjectDBX Classes
 90
        0
280
     0
281
     0
  0
ENDSEC
  0
SECTION
  2
TABLES
  0
TABLE
  2
VPORT
  5
8
330
0
100
AcDbSymbolTable
 70
     1
  0
VPORT
  5
29
330
8
100
AcDbSymbolTableRecord
100
AcDbViewportTableRecord
  2
*Active
 70
     0
 10
0.0
 20
0.0
 11
1.0
 21
1.0
 12
10.42990654205607
 22
4.5
 13
0.0
 23
0.0
 14
0.5
 24
0.5
 15
0.5
 25
0.5
 16
0.0
 26
0.0
 36
1.0
 17
0.0
 27
0.0
 37
0.0
 40
9.0
 41
1.972972972850329
 42
50.0
 43
0.0
 44
0.0
 50
0.0
 51
0.0
 71
     0
 72
   100
 73
     1
 74
     3
 75
     0
 76
     0
 77
     0
 78
     0
281
     0
 65
     1
110
0.0
120
0.0
130
0.0
111
1.0
121
0.0
131
0.0
112
0.0
122
1.0
132
0.0
 79
     0
146
0.0
  0
ENDTAB
  0
TABLE
  2
LTYPE
  5
5
330
0
100
AcDbSymbolTable
 70
     9
  0
LTYPE
  5
14
330
5
100
AcDbSymbolTableRecord
100
AcDbLinetypeTableRecord
  2
ByBlock
 70
     0
  3

 72
    65
 73
     0
 40
0.0
  0
LTYPE
  5
15
330
5
100
AcDbSymbolTableRecord
100
AcDbLinetypeTableRecord
  2
ByLayer
 70
     0
  3

 72
    65
 73
     0
 40
0.0
  0
LTYPE
  5
16
330
5
100
AcDbSymbolTableRecord
100
AcDbLinetypeTableRecord
  2
Continuous
 70
     0
  3
Solid line
 72
    65
 73
     0
 40
0.0
  0
LTYPE
  5
8E
330
5
100
AcDbSymbolTableRecord
100
AcDbLinetypeTableRecord
  2
DOT
 70
     0
  3
DOT
 72
    65
 73
     2
 40
4.0
 49
6.0
 74
     0
 49
-2.0
 74
     0
  0
LTYPE
  5
8F
330
5
100
AcDbSymbolTableRecord
100
AcDbLinetypeTableRecord
  2
HIDDEN
 70
     0
  3
HIDDEN
 72
    65
 73
     2
 40
4.2
 49
8.4
 74
     0
 49
-4.2
 74
     0
  0
LTYPE
  5
90
330
5
100
AcDbSymbolTableRecord
100
AcDbLinetypeTableRecord
  2
DASHDOT
 70
     0
  3
DASHDOT
 72
    65
 73
     4
 40
14.5
 49
30.0
 74
     0
 49
-9.0
 74
     0
 49
2.5
 74
     0
 49
-9.0
 74
     0
  0
LTYPE
  5
91
330
5
100
AcDbSymbolTableRecord
100
AcDbLinetypeTableRecord
  2
PHANTOM
 70
     0
  3
PHANTOM
 72
    65
 73
     6
 40
12.0
 49
30.0
 74
     0
 49
-9.0
 74
     0
 49
2.5
 74
     0
 49
-5.0
 74
     0
 49
2.5
 74
     0
 49
-9.0
 74
     0
  0
LTYPE
  5
92
330
5
100
AcDbSymbolTableRecord
100
AcDbLinetypeTableRecord
  2
ACAD_ISO14W100
 70
     0
  3
ACAD_ISO14W100
 72
    65
 73
     8
 40
1.5
 49
12.0
 74
     0
 49
-3.0
 74
     0
 49
0.5
 74
     0
 49
-3.0
 74
     0
 49
0.5
 74
     0
 49
-3.0
 74
     0
 49
0.5
 74
     0
 49
-3.0
 74
     0
  0
LTYPE
  5
93
330
5
100
AcDbSymbolTableRecord
100
AcDbLinetypeTableRecord
  2
ACAD_ISO06W100
 70
     0
  3
ACAD_ISO06W100
 72
    65
 73
     8
 40
13.5
 49
24.0
 74
     0
 49
-3.0
 74
     0
 49
0.5
 74
     0
 49
-3.0
 74
     0
 49
0.5
 74
     0
 49
-3.0
 74
     0
 49
0.5
 74
     0
 49
-3.0
 74
     0
  0
LTYPE
  5
94
330
5
100
AcDbSymbolTableRecord
100
AcDbLinetypeTableRecord
  2
ACAD_ISO11W100
 70
     0
  3
ACAD_ISO11W100
 72
    65
 73
     6
 40
15.5
 49
12.0
 74
     0
 49
-3.0
 74
     0
 49
12.0
 74
     0
 49
-3.0
 74
     0
 49
0.5
 74
     0
 49
-3.0
 74
     0
  0
LTYPE
  5
95
330
5
100
AcDbSymbolTableRecord
100
AcDbLinetypeTableRecord
  2
ACAD_ISO13W100
 70
     0
  3
ACAD_ISO13W100
 72
    65
 73
     8
 40
13.0
 49
12.0
 74
     0
 49
-3.0
 74
     0
 49
12.0
 74
     0
 49
-3.0
 74
     0
 49
0.5
 74
     0
 49
-3.0
 74
     0
 49
0.5
 74
     0
 49
-3.0
 74
     0
  0
ENDTAB
  0
TABLE
  2
LAYER
  5
2
330
0
100
AcDbSymbolTable
 70
    22
  0
LAYER
  5
10
330
2
100
AcDbSymbolTableRecord
100
AcDbLayerTableRecord
  2
0
 70
     0
 62
     7
  6
Continuous
370
    -3
390
F
  0
LAYER
  5
96
330
2
100
AcDbSymbolTableRecord
100
AcDbLayerTableRecord
  2
1
 70
     0
 62
     7
  6
Continuous
370
     9
390
F
  0
LAYER
  5
97
330
2
100
AcDbSymbolTableRecord
100
AcDbLayerTableRecord
  2
2
 70
     0
 62
   134
  6
Continuous
370
     9
390
F
  0
LAYER
  5
98
330
2
100
AcDbSymbolTableRecord
100
AcDbLayerTableRecord
  2
3
 70
     0
 62
   214
  6
Continuous
370
     9
390
F
  0
LAYER
  5
99
330
2
100
AcDbSymbolTableRecord
100
AcDbLayerTableRecord
  2
4
 70
     0
 62
    54
  6
Continuous
370
     9
390
F
  0
LAYER
  5
9A
330
2
100
AcDbSymbolTableRecord
100
AcDbLayerTableRecord
  2
5
 70
     0
 62
    94
  6
Continuous
370
     9
390
F
  0
LAYER
  5
9B
330
2
100
AcDbSymbolTableRecord
100
AcDbLayerTableRecord
  2
6
 70
     0
 62
    14
  6
Continuous
370
     9
390
F
  0
LAYER
  5
9C
330
2
100
AcDbSymbolTableRecord
100
AcDbLayerTableRecord
  2
7
 70
     0
 62
     4
  6
Continuous
370
     9
390
F
  0
LAYER
  5
9D
330
2
100
AcDbSymbolTableRecord
100
AcDbLayerTableRecord
  2
8
 70
     0
 62
     6
  6
Continuous
370
     9
390
F
  0
LAYER
  5
9E
330
2
100
AcDbSymbolTableRecord
100
AcDbLayerTableRecord
  2
9
 70
     0
 62
     2
  6
Continuous
370
     9
390
F
  0
LAYER
  5
9F
330
2
100
AcDbSymbolTableRecord
100
AcDbLayerTableRecord
  2
10
 70
     0
 62
     3
  6
Continuous
370
     9
390
F
  0
LAYER
  5
A0
330
2
100
AcDbSymbolTableRecord
100
AcDbLayerTableRecord
  2
11
 70
     0
 62
   251
  6
Continuous
370
     9
390
F
  0
LAYER
  5
A1
330
2
100
AcDbSymbolTableRecord
100
AcDbLayerTableRecord
  2
12
 70
     0
 62
   136
  6
Continuous
370
     9
390
F
  0
LAYER
  5
A2
330
2
100
AcDbSymbolTableRecord
100
AcDbLayerTableRecord
  2
13
 70
     0
 62
   216
  6
Continuous
370
     9
390
F
  0
LAYER
  5
A3
330
2
100
AcDbSymbolTableRecord
100
AcDbLayerTableRecord
  2
14
 70
     0
 62
    56
  6
Continuous
370
     9
390
F
  0
LAYER
  5
A4
330
2
100
AcDbSymbolTableRecord
100
AcDbLayerTableRecord
  2
15
 70
     0
 62
    96
  6
Continuous
370
     9
390
F
  0
LAYER
  5
A5
330
2
100
AcDbSymbolTableRecord
100
AcDbLayerTableRecord
  2
16
 70
     0
 62
    16
  6
Continuous
370
     9
390
F
  0
LAYER
  5
A6
330
2
100
AcDbSymbolTableRecord
100
AcDbLayerTableRecord
  2
17
 70
     0
 62
   132
  6
Continuous
370
     9
390
F
  0
LAYER
  5
A7
330
2
100
AcDbSymbolTableRecord
100
AcDbLayerTableRecord
  2
18
 70
     0
 62
   212
  6
Continuous
370
     9
390
F
  0
LAYER
  5
A8
330
2
100
AcDbSymbolTableRecord
100
AcDbLayerTableRecord
  2
19
 70
     0
 62
    52
  6
Continuous
370
     9
390
F
  0
LAYER
  5
A9
330
2
100
AcDbSymbolTableRecord
100
AcDbLayerTableRecord
  2
20
 70
     0
 62
   250
  6
Continuous
370
     9
390
F
  0
LAYER
  5
AA
330
2
100
AcDbSymbolTableRecord
100
AcDbLayerTableRecord
  2
21
 70
     0
 62
     7
  6
Continuous
370
     9
390
F
  0
ENDTAB
  0
TABLE
  2
STYLE
  5
3
330
0
100
AcDbSymbolTable
 70
     2
  0
STYLE
  5
11
330
3
100
AcDbSymbolTableRecord
100
AcDbTextStyleTableRecord
  2
Standard
 70
     0
 40
0.0
 41
1.0
 50
0.0
 71
     0
 42
5.0
  3
txt
  4
bigfont
  0
STYLE
  5
41
330
3
100
AcDbSymbolTableRecord
100
AcDbTextStyleTableRecord
  2
T_STANDARD
 70
     4
 40
10.0
 41
1.0
 50
0.0
 71
     0
 42
10.0
  3
txt
  4
bigfont
  0
ENDTAB
  0
TABLE
  2
VIEW
  5
6
330
0
100
AcDbSymbolTable
 70
     0
  0
ENDTAB
  0
TABLE
  2
UCS
  5
7
330
0
100
AcDbSymbolTable
 70
     0
  0
ENDTAB
  0
TABLE
  2
APPID
  5
9
330
0
100
AcDbSymbolTable
 70
     2
  0
APPID
  5
12
330
9
100
AcDbSymbolTableRecord
100
AcDbRegAppTableRecord
  2
ACAD
 70
     0
  0
APPID
  5
40
330
9
100
AcDbSymbolTableRecord
100
AcDbRegAppTableRecord
  2
ODA
 70
     0
  0
ENDTAB
  0
TABLE
  2
DIMSTYLE
  5
A
330
0
100
AcDbSymbolTable
 70
     1
100
AcDbDimStyleTable
  0
DIMSTYLE
105
27
330
A
100
AcDbSymbolTableRecord
100
AcDbDimStyleTableRecord
  2
Standard
 70
     0
178
     0
340
11
  0
ENDTAB
  0
TABLE
  2
BLOCK_RECORD
  5
1
330
0
100
AcDbSymbolTable
 70
    16
  0
BLOCK_RECORD
  5
1F
330
1
100
AcDbSymbolTableRecord
100
AcDbBlockTableRecord
  2
*Model_Space
340
22
  0
BLOCK_RECORD
  5
1B
330
1
100
AcDbSymbolTableRecord
100
AcDbBlockTableRecord
  2
*Paper_Space
340
1E
  0
BLOCK_RECORD
  5
23
330
1
100
AcDbSymbolTableRecord
100
AcDbBlockTableRecord
  2
*Paper_Space0
340
26
  0
BLOCK_RECORD
  5
42
330
1
100
AcDbSymbolTableRecord
100
AcDbBlockTableRecord
  2
_ORIGIN
340
0
  0
BLOCK_RECORD
  5
47
330
1
100
AcDbSymbolTableRecord
100
AcDbBlockTableRecord
  2
_DOTBLANK
340
0
  0
BLOCK_RECORD
  5
4C
330
1
100
AcDbSymbolTableRecord
100
AcDbBlockTableRecord
  2
_DOT
340
0
  0
BLOCK_RECORD
  5
51
330
1
100
AcDbSymbolTableRecord
100
AcDbBlockTableRecord
  2
_OPEN
340
0
  0
BLOCK_RECORD
  5
57
330
1
100
AcDbSymbolTableRecord
100
AcDbBlockTableRecord
  2
_CLOSED
340
0
  0
BLOCK_RECORD
  5
5E
330
1
100
AcDbSymbolTableRecord
100
AcDbBlockTableRecord
  2
_CLOSEDBLANK
340
0
  0
BLOCK_RECORD
  5
64
330
1
100
AcDbSymbolTableRecord
100
AcDbBlockTableRecord
  2
_ARROWFILLED
340
0
  0
BLOCK_RECORD
  5
68
330
1
100
AcDbSymbolTableRecord
100
AcDbBlockTableRecord
  2
_BOXBLANK
340
0
  0
BLOCK_RECORD
  5
70
330
1
100
AcDbSymbolTableRecord
100
AcDbBlockTableRecord
  2
_BOXFILLED
340
0
  0
BLOCK_RECORD
  5
75
330
1
100
AcDbSymbolTableRecord
100
AcDbBlockTableRecord
  2
_INTEGRAL
340
0
  0
BLOCK_RECORD
  5
7A
330
1
100
AcDbSymbolTableRecord
100
AcDbBlockTableRecord
  2
_OBLIQUE
340
0
  0
BLOCK_RECORD
  5
7E
330
1
100
AcDbSymbolTableRecord
100
AcDbBlockTableRecord
  2
_NONE
340
0
  0
BLOCK_RECORD
  5
81
330
1
100
AcDbSymbolTableRecord
100
AcDbBlockTableRecord
  2
MARK_OPEN
340
0
  0
BLOCK_RECORD
  5
86
330
1
100
AcDbSymbolTableRecord
100
AcDbBlockTableRecord
  2
MARK_ORIGIN
340
0
  0
BLOCK_RECORD
  5
8A
330
1
100
AcDbSymbolTableRecord
100
AcDbBlockTableRecord
  2
MARK_DOT
340
0
  0
ENDTAB
  0
ENDSEC
  0
SECTION
  2
BLOCKS
  0
BLOCK
  5
20
330
1F
100
AcDbEntity
  8
0
100
AcDbBlockBegin
  2
*Model_Space
 70
     0
 10
0.0
 20
0.0
 30
0.0
  3
*Model_Space
  1

  0
ENDBLK
  5
21
330
1F
100
AcDbEntity
  8
0
100
AcDbBlockEnd
  0
BLOCK
  5
1C
330
1B
100
AcDbEntity
 67
     1
  8
0
100
AcDbBlockBegin
  2
*Paper_Space
 70
     0
 10
0.0
 20
0.0
 30
0.0
  3
*Paper_Space
  1

  0
ENDBLK
  5
1D
330
1B
100
AcDbEntity
 67
     1
  8
0
100
AcDbBlockEnd
  0
BLOCK
  5
24
330
23
100
AcDbEntity
  8
0
100
AcDbBlockBegin
  2
*Paper_Space0
 70
     0
 10
0.0
 20
0.0
 30
0.0
  3
*Paper_Space0
  1

  0
ENDBLK
  5
25
330
23
100
AcDbEntity
  8
0
100
AcDbBlockEnd
  0
BLOCK
  5
45
330
42
100
AcDbEntity
  8
0
100
AcDbBlockBegin
  2
_ORIGIN
 70
     0
 10
0.0
 20
0.0
 30
0.0
  3
_ORIGIN
  1

  0
CIRCLE
  5
43
330
42
100
AcDbEntity
  8
0
100
AcDbCircle
 10
0.0
 20
0.0
 30
0.0
 40
0.5
  0
LINE
  5
44
330
42
100
AcDbEntity
  8
0
100
AcDbLine
 10
0.0
 20
0.0
 30
0.0
 11
-1.0
 21
0.0
 31
0.0
  0
ENDBLK
  5
46
330
42
100
AcDbEntity
  8
0
100
AcDbBlockEnd
  0
BLOCK
  5
4A
330
47
100
AcDbEntity
  8
0
100
AcDbBlockBegin
  2
_DOTBLANK
 70
     0
 10
0.0
 20
0.0
 30
0.0
  3
_DOTBLANK
  1

  0
CIRCLE
  5
48
330
47
100
AcDbEntity
  8
0
100
AcDbCircle
 10
0.0
 20
0.0
 30
0.0
 40
0.5
  0
LINE
  5
49
330
47
100
AcDbEntity
  8
0
100
AcDbLine
 10
-0.5
 20
0.0
 30
0.0
 11
-1.0
 21
0.0
 31
0.0
  0
ENDBLK
  5
4B
330
47
100
AcDbEntity
  8
0
100
AcDbBlockEnd
  0
BLOCK
  5
4F
330
4C
100
AcDbEntity
  8
0
100
AcDbBlockBegin
  2
_DOT
 70
     0
 10
0.0
 20
0.0
 30
0.0
  3
_DOT
  1

  0
LWPOLYLINE
  5
4D
330
4C
100
AcDbEntity
  8
0
100
AcDbPolyline
 90
        2
 70
     1
 43
0.5
 10
-0.25
 20
0.0
 42
1.0
 10
0.25
 20
0.0
 42
1.0
  0
LINE
  5
4E
330
4C
100
AcDbEntity
  8
0
100
AcDbLine
 10
-0.5
 20
0.0
 30
0.0
 11
-1.0
 21
0.0
 31
0.0
  0
ENDBLK
  5
50
330
4C
100
AcDbEntity
  8
0
100
AcDbBlockEnd
  0
BLOCK
  5
55
330
51
100
AcDbEntity
  8
0
100
AcDbBlockBegin
  2
_OPEN
 70
     0
 10
0.0
 20
0.0
 30
0.0
  3
_OPEN
  1

  0
LINE
  5
52
330
51
100
AcDbEntity
  8
0
100
AcDbLine
 10
0.0
 20
0.0
 30
0.0
 11
-1.0
 21
0.1666666666666667
 31
0.0
  0
LINE
  5
53
330
51
100
AcDbEntity
  8
0
100
AcDbLine
 10
0.0
 20
0.0
 30
0.0
 11
-1.0
 21
-0.1666666666666667
 31
0.0
  0
LINE
  5
54
330
51
100
AcDbEntity
  8
0
100
AcDbLine
 10
0.0
 20
0.0
 30
0.0
 11
-1.0
 21
0.0
 31
0.0
  0
ENDBLK
  5
56
330
51
100
AcDbEntity
  8
0
100
AcDbBlockEnd
  0
BLOCK
  5
5C
330
57
100
AcDbEntity
  8
0
100
AcDbBlockBegin
  2
_CLOSED
 70
     0
 10
0.0
 20
0.0
 30
0.0
  3
_CLOSED
  1

  0
LINE
  5
58
330
57
100
AcDbEntity
  8
0
100
AcDbLine
 10
0.0
 20
0.0
 30
0.0
 11
-1.0
 21
0.1666666666666667
 31
0.0
  0
LINE
  5
59
330
57
100
AcDbEntity
  8
0
100
AcDbLine
 10
0.0
 20
0.0
 30
0.0
 11
-1.0
 21
-0.1666666666666667
 31
0.0
  0
LINE
  5
5A
330
57
100
AcDbEntity
  8
0
100
AcDbLine
 10
-1.0
 20
0.1666666666666667
 30
0.0
 11
-1.0
 21
-0.1666666666666667
 31
0.0
  0
LINE
  5
5B
330
57
100
AcDbEntity
  8
0
100
AcDbLine
 10
0.0
 20
0.0
 30
0.0
 11
-1.0
 21
0.0
 31
0.0
  0
ENDBLK
  5
5D
330
57
100
AcDbEntity
  8
0
100
AcDbBlockEnd
  0
BLOCK
  5
62
330
5E
100
AcDbEntity
  8
0
100
AcDbBlockBegin
  2
_CLOSEDBLANK
 70
     0
 10
0.0
 20
0.0
 30
0.0
  3
_CLOSEDBLANK
  1

  0
LINE
  5
5F
330
5E
100
AcDbEntity
  8
0
100
AcDbLine
 10
0.0
 20
0.0
 30
0.0
 11
-1.0
 21
0.1666666666666667
 31
0.0
  0
LINE
  5
60
330
5E
100
AcDbEntity
  8
0
100
AcDbLine
 10
0.0
 20
0.0
 30
0.0
 11
-1.0
 21
-0.1666666666666667
 31
0.0
  0
LINE
  5
61
330
5E
100
AcDbEntity
  8
0
100
AcDbLine
 10
-1.0
 20
0.1666666666666667
 30
0.0
 11
-1.0
 21
-0.1666666666666667
 31
0.0
  0
ENDBLK
  5
63
330
5E
100
AcDbEntity
  8
0
100
AcDbBlockEnd
  0
BLOCK
  5
66
330
64
100
AcDbEntity
  8
0
100
AcDbBlockBegin
  2
_ARROWFILLED
 70
     0
 10
0.0
 20
0.0
 30
0.0
  3
_ARROWFILLED
  1

  0
SOLID
  5
65
330
64
100
AcDbEntity
  8
0
100
AcDbTrace
 10
0.0
 20
0.0
 30
0.0
 11
-1.0
 21
-0.1666666666666667
 31
0.0
 12
-1.0
 22
0.1666666666666667
 32
0.0
 13
0.0
 23
0.0
 33
0.0
  0
ENDBLK
  5
67
330
64
100
AcDbEntity
  8
0
100
AcDbBlockEnd
  0
BLOCK
  5
6E
330
68
100
AcDbEntity
  8
0
100
AcDbBlockBegin
  2
_BOXBLANK
 70
     0
 10
0.0
 20
0.0
 30
0.0
  3
_BOXBLANK
  1

  0
LINE
  5
69
330
68
100
AcDbEntity
  8
0
100
AcDbLine
 10
-0.5
 20
-0.5
 30
0.0
 11
0.5
 21
-0.5
 31
0.0
  0
LINE
  5
6A
330
68
100
AcDbEntity
  8
0
100
AcDbLine
 10
0.5
 20
-0.5
 30
0.0
 11
0.5
 21
0.5
 31
0.0
  0
LINE
  5
6B
330
68
100
AcDbEntity
  8
0
100
AcDbLine
 10
0.5
 20
0.5
 30
0.0
 11
-0.5
 21
0.5
 31
0.0
  0
LINE
  5
6C
330
68
100
AcDbEntity
  8
0
100
AcDbLine
 10
-0.5
 20
0.5
 30
0.0
 11
-0.5
 21
-0.5
 31
0.0
  0
LINE
  5
6D
330
68
100
AcDbEntity
  8
0
100
AcDbLine
 10
-0.5
 20
0.0
 30
0.0
 11
-1.0
 21
0.0
 31
0.0
  0
ENDBLK
  5
6F
330
68
100
AcDbEntity
  8
0
100
AcDbBlockEnd
  0
BLOCK
  5
73
330
70
100
AcDbEntity
  8
0
100
AcDbBlockBegin
  2
_BOXFILLED
 70
     0
 10
0.0
 20
0.0
 30
0.0
  3
_BOXFILLED
  1

  0
SOLID
  5
71
330
70
100
AcDbEntity
  8
0
100
AcDbTrace
 10
-0.5
 20
0.5
 30
0.0
 11
0.5
 21
0.5
 31
0.0
 12
-0.5
 22
-0.5
 32
0.0
 13
0.5
 23
-0.5
 33
0.0
  0
LINE
  5
72
330
70
100
AcDbEntity
  8
0
100
AcDbLine
 10
-0.5
 20
0.0
 30
0.0
 11
-1.0
 21
0.0
 31
0.0
  0
ENDBLK
  5
74
330
70
100
AcDbEntity
  8
0
100
AcDbBlockEnd
  0
BLOCK
  5
78
330
75
100
AcDbEntity
  8
0
100
AcDbBlockBegin
  2
_INTEGRAL
 70
     0
 10
0.0
 20
0.0
 30
0.0
  3
_INTEGRAL
  1

  0
ARC
  5
76
330
75
100
AcDbEntity
  8
0
100
AcDbCircle
 10
0.444888
 20
-0.0913346
 30
0.0
 40
0.4541666
100
AcDbArc
 50
101.9999999999999
 51
167.9999999999998
  0
ARC
  5
77
330
75
100
AcDbEntity
  8
0
100
AcDbCircle
 10
-0.444888
 20
0.0913346
 30
0.0
 40
0.4541666
100
AcDbArc
 50
281.9999999999997
 51
347.9999999999997
  0
ENDBLK
  5
79
330
75
100
AcDbEntity
  8
0
100
AcDbBlockEnd
  0
BLOCK
  5
7C
330
7A
100
AcDbEntity
  8
0
100
AcDbBlockBegin
  2
_OBLIQUE
 70
     0
 10
0.0
 20
0.0
 30
0.0
  3
_OBLIQUE
  1

  0
LINE
  5
7B
330
7A
100
AcDbEntity
  8
0
100
AcDbLine
 10
-0.5
 20
-0.5
 30
0.0
 11
0.5
 21
0.5
 31
0.0
  0
ENDBLK
  5
7D
330
7A
100
AcDbEntity
  8
0
100
AcDbBlockEnd
  0
BLOCK
  5
7F
330
7E
100
AcDbEntity
  8
0
100
AcDbBlockBegin
  2
_NONE
 70
     0
 10
0.0
 20
0.0
 30
0.0
  3
_NONE
  1

  0
ENDBLK
  5
80
330
7E
100
AcDbEntity
  8
0
100
AcDbBlockEnd
  0
BLOCK
  5
84
330
81
100
AcDbEntity
  8
0
100
AcDbBlockBegin
  2
MARK_OPEN
 70
     0
 10
0.0
 20
0.0
 30
0.0
  3
MARK_OPEN
  1

  0
LINE
  5
82
330
81
100
AcDbEntity
  8
0
100
AcDbLine
 10
0.0
 20
0.0
 30
0.0
 11
-1.0
 21
0.1666666666666667
 31
0.0
  0
LINE
  5
83
330
81
100
AcDbEntity
  8
0
100
AcDbLine
 10
0.0
 20
0.0
 30
0.0
 11
-1.0
 21
-0.1666666666666667
 31
0.0
  0
ENDBLK
  5
85
330
81
100
AcDbEntity
  8
0
100
AcDbBlockEnd
  0
BLOCK
  5
88
330
86
100
AcDbEntity
  8
0
100
AcDbBlockBegin
  2
MARK_ORIGIN
 70
     0
 10
0.0
 20
0.0
 30
0.0
  3
MARK_ORIGIN
  1

  0
CIRCLE
  5
87
330
86
100
AcDbEntity
  8
0
100
AcDbCircle
 10
0.0
 20
0.0
 30
0.0
 40
0.5
  0
ENDBLK
  5
89
330
86
100
AcDbEntity
  8
0
100
AcDbBlockEnd
  0
BLOCK
  5
8C
330
8A
100
AcDbEntity
  8
0
100
AcDbBlockBegin
  2
MARK_DOT
 70
     0
 10
0.0
 20
0.0
 30
0.0
  3
MARK_DOT
  1

  0
LWPOLYLINE
  5
8B
330
8A
100
AcDbEntity
  8
0
100
AcDbPolyline
 90
        2
 70
     1
 43
0.5
 10
-0.25
 20
0.0
 42
1.0
 10
0.25
 20
0.0
 42
1.0
  0
ENDBLK
  5
8D
330
8A
100
AcDbEntity
  8
0
100
AcDbBlockEnd
  0
ENDSEC
  0
SECTION
  2
ENTITIES
  0
LINE
  5
AB
330
1F
100
AcDbEntity
  8
1
  6
Continuous
 62
     7
370
     9
100
AcDbLine
 10
-0.0727500000000045
 20
-8.160799999999993
 30
0.0
 11
-0.0727499999999885
 21
8.160800000000007
 31
0.0
  0
LINE
  5
AC
330
1F
100
AcDbEntity
  8
1
  6
Continuous
 62
     7
370
     9
100
AcDbLine
 10
-0.0627500000000047
 20
-8.160799999999993
 30
0.0
 11
-0.0627499999999888
 21
8.160800000000007
 31
0.0
  0
LINE
  5
AD
330
1F
100
AcDbEntity
  8
1
  6
Continuous
 62
     7
370
     9
100
AcDbLine
 10
-0.052750000000005
 20
-8.160799999999995
 30
0.0
 11
-0.052749999999989
 21
8.160800000000007
 31
0.0
  0
LINE
  5
AE
330
1F
100
AcDbEntity
  8
1
  6
Continuous
 62
     7
370
     9
100
AcDbLine
 10
-0.0427500000000052
 20
-8.160799999999995
 30
0.0
 11
-0.0427499999999892
 21
8.160800000000007
 31
0.0
  0
LINE
  5
AF
330
1F
100
AcDbEntity
  8
1
  6
Continuous
 62
     7
370
     9
100
AcDbLine
 10
-0.0327500000000054
 20
-8.160799999999995
 30
0.0
 11
-0.0327499999999894
 21
8.160800000000007
 31
0.0
  0
LINE
  5
B0
330
1F
100
AcDbEntity
  8
1
  6
Continuous
 62
     7
370
     9
100
AcDbLine
 10
-0.0227500000000056
 20
-8.160799999999995
 30
0.0
 11
-0.0227499999999896
 21
8.160800000000007
 31
0.0
  0
LINE
  5
B1
330
1F
100
AcDbEntity
  8
1
  6
Continuous
 62
     7
370
     9
100
AcDbLine
 10
-0.0127500000000058
 20
-8.160799999999995
 30
0.0
 11
-0.0127499999999898
 21
8.160800000000007
 31
0.0
  0
LINE
  5
B2
330
1F
100
AcDbEntity
  8
1
  6
Continuous
 62
     7
370
     9
100
AcDbLine
 10
-0.002750000000006
 20
-8.160799999999995
 30
0.0
 11
-0.00274999999999
 21
8.160800000000007
 31
0.0
  0
LINE
  5
B3
330
1F
100
AcDbEntity
  8
1
  6
Continuous
 62
     7
370
     9
100
AcDbLine
 10
0.0072499999999938
 20
-8.160799999999995
 30
0.0
 11
0.0072500000000097
 21
8.160800000000007
 31
0.0
  0
LINE
  5
B4
330
1F
100
AcDbEntity
  8
1
  6
Continuous
 62
     7
370
     9
100
AcDbLine
 10
0.0172499999999935
 20
-8.160799999999995
 30
0.0
 11
0.0172500000000095
 21
8.160800000000007
 31
0.0
  0
LINE
  5
B5
330
1F
100
AcDbEntity
  8
1
  6
Continuous
 62
     7
370
     9
100
AcDbLine
 10
0.0272499999999933
 20
-8.160799999999995
 30
0.0
 11
0.0272500000000093
 21
8.160800000000007
 31
0.0
  0
LINE
  5
B6
330
1F
100
AcDbEntity
  8
1
  6
Continuous
 62
     7
370
     9
100
AcDbLine
 10
0.0372499999999931
 20
-8.160799999999995
 30
0.0
 11
0.0372500000000091
 21
8.160800000000007
 31
0.0
  0
LINE
  5
B7
330
1F
100
AcDbEntity
  8
1
  6
Continuous
 62
     7
370
     9
100
AcDbLine
 10
0.0472499999999929
 20
-8.160799999999995
 30
0.0
 11
0.0472500000000089
 21
8.160800000000007
 31
0.0
  0
LINE
  5
B8
330
1F
100
AcDbEntity
  8
1
  6
Continuous
 62
     7
370
     9
100
AcDbLine
 10
0.0572499999999927
 20
-8.160799999999995
 30
0.0
 11
0.0572500000000087
 21
8.160800000000007
 31
0.0
  0
LINE
  5
B9
330
1F
100
AcDbEntity
  8
1
  6
Continuous
 62
     7
370
     9
100
AcDbLine
 10
0.0672499999999925
 20
-8.160799999999995
 30
0.0
 11
0.0672500000000085
 21
8.160800000000007
 31
0.0
  0
LINE
  5
BA
330
1F
100
AcDbEntity
  8
1
  6
Continuous
 62
     7
370
     9
100
AcDbLine
 10
-0.0727500000000045
 20
-8.160799999999993
 30
0.0
 11
-0.0727499999999885
 21
8.160800000000007
 31
0.0
  0
LINE
  5
BB
330
1F
100
AcDbEntity
  8
1
  6
Continuous
 62
     7
370
     9
100
AcDbLine
 10
-0.0627500000000047
 20
-8.160799999999993
 30
0.0
 11
-0.0627499999999888
 21
8.160800000000007
 31
0.0
  0
LINE
  5
BC
330
1F
100
AcDbEntity
  8
1
  6
Continuous
 62
     7
370
     9
100
AcDbLine
 10
-0.052750000000005
 20
-8.160799999999995
 30
0.0
 11
-0.052749999999989
 21
8.160800000000007
 31
0.0
  0
LINE
  5
BD
330
1F
100
AcDbEntity
  8
1
  6
Continuous
 62
     7
370
     9
100
AcDbLine
 10
-0.0427500000000052
 20
-8.160799999999995
 30
0.0
 11
-0.0427499999999892
 21
8.160800000000007
 31
0.0
  0
LINE
  5
BE
330
1F
100
AcDbEntity
  8
1
  6
Continuous
 62
     7
370
     9
100
AcDbLine
 10
-0.0327500000000054
 20
-8.160799999999995
 30
0.0
 11
-0.0327499999999894
 21
8.160800000000007
 31
0.0
  0
LINE
  5
BF
330
1F
100
AcDbEntity
  8
1
  6
Continuous
 62
     7
370
     9
100
AcDbLine
 10
-0.0227500000000056
 20
-8.160799999999995
 30
0.0
 11
-0.0227499999999896
 21
8.160800000000007
 31
0.0
  0
LINE
  5
C0
330
1F
100
AcDbEntity
  8
1
  6
Continuous
 62
     7
370
     9
100
AcDbLine
 10
-0.0127500000000058
 20
-8.160799999999995
 30
0.0
 11
-0.0127499999999898
 21
8.160800000000007
 31
0.0
  0
LINE
  5
C1
330
1F
100
AcDbEntity
  8
1
  6
Continuous
 62
     7
370
     9
100
AcDbLine
 10
-0.002750000000006
 20
-8.160799999999995
 30
0.0
 11
-0.00274999999999
 21
8.160800000000007
 31
0.0
  0
LINE
  5
C2
330
1F
100
AcDbEntity
  8
1
  6
Continuous
 62
     7
370
     9
100
AcDbLine
 10
0.0072499999999938
 20
-8.160799999999995
 30
0.0
 11
0.0072500000000097
 21
8.160800000000007
 31
0.0
  0
LINE
  5
C3
330
1F
100
AcDbEntity
  8
1
  6
Continuous
 62
     7
370
     9
100
AcDbLine
 10
0.0172499999999935
 20
-8.160799999999995
 30
0.0
 11
0.0172500000000095
 21
8.160800000000007
 31
0.0
  0
LINE
  5
C4
330
1F
100
AcDbEntity
  8
1
  6
Continuous
 62
     7
370
     9
100
AcDbLine
 10
0.0272499999999933
 20
-8.160799999999995
 30
0.0
 11
0.0272500000000093
 21
8.160800000000007
 31
0.0
  0
LINE
  5
C5
330
1F
100
AcDbEntity
  8
1
  6
Continuous
 62
     7
370
     9
100
AcDbLine
 10
0.0372499999999931
 20
-8.160799999999995
 30
0.0
 11
0.0372500000000091
 21
8.160800000000007
 31
0.0
  0
LINE
  5
C6
330
1F
100
AcDbEntity
  8
1
  6
Continuous
 62
     7
370
     9
100
AcDbLine
 10
0.0472499999999929
 20
-8.160799999999995
 30
0.0
 11
0.0472500000000089
 21
8.160800000000007
 31
0.0
  0
LINE
  5
C7
330
1F
100
AcDbEntity
  8
1
  6
Continuous
 62
     7
370
     9
100
AcDbLine
 10
0.0572499999999927
 20
-8.160799999999995
 30
0.0
 11
0.0572500000000087
 21
8.160800000000007
 31
0.0
  0
LINE
  5
C8
330
1F
100
AcDbEntity
  8
1
  6
Continuous
 62
     7
370
     9
100
AcDbLine
 10
0.0672499999999925
 20
-8.160799999999995
 30
0.0
 11
0.0672500000000085
 21
8.160800000000007
 31
0.0
  0
LINE
  5
C9
330
1F
100
AcDbEntity
  8
2
  6
Continuous
 62
   134
370
     9
100
AcDbLine
 10
-0.3777500000000042
 20
-5.100499999999996
 30
0.0
 11
-0.3777499999999883
 21
5.100500000000005
 31
0.0
  0
LINE
  5
CA
330
1F
100
AcDbEntity
  8
2
  6
Continuous
 62
   134
370
     9
100
AcDbLine
 10
-0.3677500000000045
 20
-5.100499999999996
 30
0.0
 11
-0.3677499999999885
 21
5.100500000000005
 31
0.0
  0
LINE
  5
CB
330
1F
100
AcDbEntity
  8
2
  6
Continuous
 62
   134
370
     9
100
AcDbLine
 10
-0.3577500000000047
 20
-5.100499999999997
 30
0.0
 11
-0.3577499999999887
 21
5.100500000000004
 31
0.0
  0
LINE
  5
CC
330
1F
100
AcDbEntity
  8
2
  6
Continuous
 62
   134
370
     9
100
AcDbLine
 10
-0.3477500000000049
 20
-5.100499999999997
 30
0.0
 11
-0.3477499999999889
 21
5.100500000000004
 31
0.0
  0
LINE
  5
CD
330
1F
100
AcDbEntity
  8
2
  6
Continuous
 62
   134
370
     9
100
AcDbLine
 10
-0.3377500000000051
 20
-5.100499999999997
 30
0.0
 11
-0.3377499999999891
 21
5.100500000000004
 31
0.0
  0
LINE
  5
CE
330
1F
100
AcDbEntity
  8
2
  6
Continuous
 62
   134
370
     9
100
AcDbLine
 10
-0.3277500000000053
 20
-5.100499999999997
 30
0.0
 11
-0.3277499999999893
 21
5.100500000000004
 31
0.0
  0
LINE
  5
CF
330
1F
100
AcDbEntity
  8
2
  6
Continuous
 62
   134
370
     9
100
AcDbLine
 10
-0.3177500000000055
 20
-5.100499999999997
 30
0.0
 11
-0.3177499999999895
 21
5.100500000000004
 31
0.0
  0
LINE
  5
D0
330
1F
100
AcDbEntity
  8
2
  6
Continuous
 62
   134
370
     9
100
AcDbLine
 10
-0.3077500000000057
 20
-5.100499999999997
 30
0.0
 11
-0.3077499999999898
 21
5.100500000000004
 31
0.0
  0
LINE
  5
D1
330
1F
100
AcDbEntity
  8
2
  6
Continuous
 62
   134
370
     9
100
AcDbLine
 10
-0.297750000000006
 20
-5.100499999999997
 30
0.0
 11
-0.29774999999999
 21
5.100500000000004
 31
0.0
  0
LINE
  5
D2
330
1F
100
AcDbEntity
  8
2
  6
Continuous
 62
   134
370
     9
100
AcDbLine
 10
-0.2877500000000062
 20
-5.100499999999997
 30
0.0
 11
-0.2877499999999902
 21
5.100500000000004
 31
0.0
  0
LINE
  5
D3
330
1F
100
AcDbEntity
  8
2
  6
Continuous
 62
   134
370
     9
100
AcDbLine
 10
-0.2777500000000064
 20
-5.100499999999997
 30
0.0
 11
-0.2777499999999904
 21
5.100500000000004
 31
0.0
  0
LINE
  5
D4
330
1F
100
AcDbEntity
  8
2
  6
Continuous
 62
   134
370
     9
100
AcDbLine
 10
-0.2677500000000066
 20
-5.100499999999997
 30
0.0
 11
-0.2677499999999906
 21
5.100500000000004
 31
0.0
  0
LINE
  5
D5
330
1F
100
AcDbEntity
  8
2
  6
Continuous
 62
   134
370
     9
100
AcDbLine
 10
-0.2577500000000068
 20
-5.100499999999997
 30
0.0
 11
-0.2577499999999908
 21
5.100500000000004
 31
0.0
  0
LINE
  5
D6
330
1F
100
AcDbEntity
  8
2
  6
Continuous
 62
   134
370
     9
100
AcDbLine
 10
-0.247750000000007
 20
-5.100499999999997
 30
0.0
 11
-0.247749999999991
 21
5.100500000000004
 31
0.0
  0
LINE
  5
D7
330
1F
100
AcDbEntity
  8
2
  6
Continuous
 62
   134
370
     9
100
AcDbLine
 10
-0.2377500000000072
 20
-5.100499999999997
 30
0.0
 11
-0.2377499999999912
 21
5.100500000000004
 31
0.0
  0
LINE
  5
D8
330
1F
100
AcDbEntity
  8
2
  6
Continuous
 62
   134
370
     9
100
AcDbLine
 10
-0.3777500000000042
 20
-5.100499999999996
 30
0.0
 11
-0.3777499999999883
 21
5.100500000000005
 31
0.0
  0
LINE
  5
D9
330
1F
100
AcDbEntity
  8
2
  6
Continuous
 62
   134
370
     9
100
AcDbLine
 10
-0.3677500000000045
 20
-5.100499999999996
 30
0.0
 11
-0.3677499999999885
 21
5.100500000000005
 31
0.0
  0
LINE
  5
DA
330
1F
100
AcDbEntity
  8
2
  6
Continuous
 62
   134
370
     9
100
AcDbLine
 10
-0.3577500000000047
 20
-5.100499999999997
 30
0.0
 11
-0.3577499999999887
 21
5.100500000000004
 31
0.0
  0
LINE
  5
DB
330
1F
100
AcDbEntity
  8
2
  6
Continuous
 62
   134
370
     9
100
AcDbLine
 10
-0.3477500000000049
 20
-5.100499999999997
 30
0.0
 11
-0.3477499999999889
 21
5.100500000000004
 31
0.0
  0
LINE
  5
DC
330
1F
100
AcDbEntity
  8
2
  6
Continuous
 62
   134
370
     9
100
AcDbLine
 10
-0.3377500000000051
 20
-5.100499999999997
 30
0.0
 11
-0.3377499999999891
 21
5.100500000000004
 31
0.0
  0
LINE
  5
DD
330
1F
100
AcDbEntity
  8
2
  6
Continuous
 62
   134
370
     9
100
AcDbLine
 10
-0.3277500000000053
 20
-5.100499999999997
 30
0.0
 11
-0.3277499999999893
 21
5.100500000000004
 31
0.0
  0
LINE
  5
DE
330
1F
100
AcDbEntity
  8
2
  6
Continuous
 62
   134
370
     9
100
AcDbLine
 10
-0.3177500000000055
 20
-5.100499999999997
 30
0.0
 11
-0.3177499999999895
 21
5.100500000000004
 31
0.0
  0
LINE
  5
DF
330
1F
100
AcDbEntity
  8
2
  6
Continuous
 62
   134
370
     9
100
AcDbLine
 10
-0.3077500000000057
 20
-5.100499999999997
 30
0.0
 11
-0.3077499999999898
 21
5.100500000000004
 31
0.0
  0
LINE
  5
E0
330
1F
100
AcDbEntity
  8
2
  6
Continuous
 62
   134
370
     9
100
AcDbLine
 10
-0.297750000000006
 20
-5.100499999999997
 30
0.0
 11
-0.29774999999999
 21
5.100500000000004
 31
0.0
  0
LINE
  5
E1
330
1F
100
AcDbEntity
  8
2
  6
Continuous
 62
   134
370
     9
100
AcDbLine
 10
-0.2877500000000062
 20
-5.100499999999997
 30
0.0
 11
-0.2877499999999902
 21
5.100500000000004
 31
0.0
  0
LINE
  5
E2
330
1F
100
AcDbEntity
  8
2
  6
Continuous
 62
   134
370
     9
100
AcDbLine
 10
-0.2777500000000064
 20
-5.100499999999997
 30
0.0
 11
-0.2777499999999904
 21
5.100500000000004
 31
0.0
  0
LINE
  5
E3
330
1F
100
AcDbEntity
  8
2
  6
Continuous
 62
   134
370
     9
100
AcDbLine
 10
-0.2677500000000066
 20
-5.100499999999997
 30
0.0
 11
-0.2677499999999906
 21
5.100500000000004
 31
0.0
  0
LINE
  5
E4
330
1F
100
AcDbEntity
  8
2
  6
Continuous
 62
   134
370
     9
100
AcDbLine
 10
-0.2577500000000068
 20
-5.100499999999997
 30
0.0
 11
-0.2577499999999908
 21
5.100500000000004
 31
0.0
  0
LINE
  5
E5
330
1F
100
AcDbEntity
  8
2
  6
Continuous
 62
   134
370
     9
100
AcDbLine
 10
-0.247750000000007
 20
-5.100499999999997
 30
0.0
 11
-0.247749999999991
 21
5.100500000000004
 31
0.0
  0
LINE
  5
E6
330
1F
100
AcDbEntity
  8
2
  6
Continuous
 62
   134
370
     9
100
AcDbLine
 10
-0.2377500000000072
 20
-5.100499999999997
 30
0.0
 11
-0.2377499999999912
 21
5.100500000000004
 31
0.0
  0
LINE
  5
E7
330
1F
100
AcDbEntity
  8
3
  6
Continuous
 62
   214
370
     9
100
AcDbLine
 10
0.2322499999999952
 20
-5.100499999999996
 30
0.0
 11
0.2322500000000112
 21
5.100500000000005
 31
0.0
  0
LINE
  5
E8
330
1F
100
AcDbEntity
  8
3
  6
Continuous
 62
   214
370
     9
100
AcDbLine
 10
0.242249999999995
 20
-5.100499999999996
 30
0.0
 11
0.242250000000011
 21
5.100500000000005
 31
0.0
  0
LINE
  5
E9
330
1F
100
AcDbEntity
  8
3
  6
Continuous
 62
   214
370
     9
100
AcDbLine
 10
0.2522499999999948
 20
-5.100499999999997
 30
0.0
 11
0.2522500000000107
 21
5.100500000000004
 31
0.0
  0
LINE
  5
EA
330
1F
100
AcDbEntity
  8
3
  6
Continuous
 62
   214
370
     9
100
AcDbLine
 10
0.2622499999999945
 20
-5.100499999999997
 30
0.0
 11
0.2622500000000105
 21
5.100500000000004
 31
0.0
  0
LINE
  5
EB
330
1F
100
AcDbEntity
  8
3
  6
Continuous
 62
   214
370
     9
100
AcDbLine
 10
0.2722499999999943
 20
-5.100499999999997
 30
0.0
 11
0.2722500000000103
 21
5.100500000000004
 31
0.0
  0
LINE
  5
EC
330
1F
100
AcDbEntity
  8
3
  6
Continuous
 62
   214
370
     9
100
AcDbLine
 10
0.2822499999999941
 20
-5.100499999999997
 30
0.0
 11
0.2822500000000101
 21
5.100500000000004
 31
0.0
  0
LINE
  5
ED
330
1F
100
AcDbEntity
  8
3
  6
Continuous
 62
   214
370
     9
100
AcDbLine
 10
0.2922499999999939
 20
-5.100499999999997
 30
0.0
 11
0.2922500000000099
 21
5.100500000000004
 31
0.0
  0
LINE
  5
EE
330
1F
100
AcDbEntity
  8
3
  6
Continuous
 62
   214
370
     9
100
AcDbLine
 10
0.3022499999999937
 20
-5.100499999999997
 30
0.0
 11
0.3022500000000097
 21
5.100500000000004
 31
0.0
  0
LINE
  5
EF
330
1F
100
AcDbEntity
  8
3
  6
Continuous
 62
   214
370
     9
100
AcDbLine
 10
0.3122499999999935
 20
-5.100499999999997
 30
0.0
 11
0.3122500000000095
 21
5.100500000000004
 31
0.0
  0
LINE
  5
F0
330
1F
100
AcDbEntity
  8
3
  6
Continuous
 62
   214
370
     9
100
AcDbLine
 10
0.3222499999999933
 20
-5.100499999999997
 30
0.0
 11
0.3222500000000093
 21
5.100500000000004
 31
0.0
  0
LINE
  5
F1
330
1F
100
AcDbEntity
  8
3
  6
Continuous
 62
   214
370
     9
100
AcDbLine
 10
0.3322499999999931
 20
-5.100499999999997
 30
0.0
 11
0.332250000000009
 21
5.100500000000004
 31
0.0
  0
LINE
  5
F2
330
1F
100
AcDbEntity
  8
3
  6
Continuous
 62
   214
370
     9
100
AcDbLine
 10
0.3422499999999928
 20
-5.100499999999997
 30
0.0
 11
0.3422500000000088
 21
5.100500000000004
 31
0.0
  0
LINE
  5
F3
330
1F
100
AcDbEntity
  8
3
  6
Continuous
 62
   214
370
     9
100
AcDbLine
 10
0.3522499999999926
 20
-5.100499999999997
 30
0.0
 11
0.3522500000000086
 21
5.100500000000004
 31
0.0
  0
LINE
  5
F4
330
1F
100
AcDbEntity
  8
3
  6
Continuous
 62
   214
370
     9
100
AcDbLine
 10
0.3622499999999924
 20
-5.100499999999997
 30
0.0
 11
0.3622500000000084
 21
5.100500000000004
 31
0.0
  0
LINE
  5
F5
330
1F
100
AcDbEntity
  8
3
  6
Continuous
 62
   214
370
     9
100
AcDbLine
 10
0.3722499999999922
 20
-5.100499999999997
 30
0.0
 11
0.3722500000000082
 21
5.100500000000004
 31
0.0
  0
LINE
  5
F6
330
1F
100
AcDbEntity
  8
6
  6
Continuous
 62
    14
370
     9
100
AcDbLine
 10
-0.0500000000000158
 20
-10.0
 30
0.0
 11
-0.0500000000000194
 21
-12.0
 31
0.0
  0
LINE
  5
F7
330
1F
100
AcDbEntity
  8
6
  6
Continuous
 62
    14
370
     9
100
AcDbLine
 10
0.0499999999999838
 20
-10.0
 30
0.0
 11
-0.0500000000000158
 21
-10.0
 31
0.0
  0
LINE
  5
F8
330
1F
100
AcDbEntity
  8
6
  6
Continuous
 62
    14
370
     9
100
AcDbLine
 10
0.0499999999999803
 20
-12.0
 30
0.0
 11
0.0499999999999838
 21
-10.0
 31
0.0
  0
LINE
  5
F9
330
1F
100
AcDbEntity
  8
6
  6
Continuous
 62
    14
370
     9
100
AcDbLine
 10
-0.0500000000000194
 20
-12.0
 30
0.0
 11
0.0499999999999803
 21
-12.0
 31
0.0
  0
LINE
  5
FA
330
1F
100
AcDbEntity
  8
6
  6
Continuous
 62
    14
370
     9
100
AcDbLine
 10
-0.0450000000000195
 20
-12.0
 30
0.0
 11
-0.0450000000000159
 21
-10.0
 31
0.0
  0
LINE
  5
FB
330
1F
100
AcDbEntity
  8
6
  6
Continuous
 62
    14
370
     9
100
AcDbLine
 10
-0.0300000000000198
 20
-12.0
 30
0.0
 11
-0.0300000000000162
 21
-10.0
 31
0.0
  0
LINE
  5
FC
330
1F
100
AcDbEntity
  8
6
  6
Continuous
 62
    14
370
     9
100
AcDbLine
 10
-0.0150000000000192
 20
-12.0
 30
0.0
 11
-0.0150000000000166
 21
-10.0
 31
0.0
  0
LINE
  5
FD
330
1F
100
AcDbEntity
  8
6
  6
Continuous
 62
    14
370
     9
100
AcDbLine
 10
-0.0000000000000195
 20
-12.0
 30
0.0
 11
-0.000000000000016
 21
-10.0
 31
0.0
  0
LINE
  5
FE
330
1F
100
AcDbEntity
  8
6
  6
Continuous
 62
    14
370
     9
100
AcDbLine
 10
0.014999999999981
 20
-12.0
 30
0.0
 11
0.0149999999999837
 21
-10.0
 31
0.0
  0
LINE
  5
FF
330
1F
100
AcDbEntity
  8
6
  6
Continuous
 62
    14
370
     9
100
AcDbLine
 10
0.0299999999999807
 20
-12.0
 30
0.0
 11
0.0299999999999843
 21
-10.0
 31
0.0
  0
LINE
  5
100
330
1F
100
AcDbEntity
  8
6
  6
Continuous
 62
    14
370
     9
100
AcDbLine
 10
0.0449999999999804
 20
-12.0
 30
0.0
 11
0.0449999999999839
 21
-10.0
 31
0.0
  0
LINE
  5
101
330
1F
100
AcDbEntity
  8
6
  6
Continuous
 62
    14
370
     9
100
AcDbLine
 10
-1.000000000000018
 20
-11.05
 30
0.0
 11
0.9999999999999822
 21
-11.05
 31
0.0
  0
LINE
  5
102
330
1F
100
AcDbEntity
  8
6
  6
Continuous
 62
    14
370
     9
100
AcDbLine
 10
-1.000000000000018
 20
-10.95
 30
0.0
 11
-1.000000000000018
 21
-11.05
 31
0.0
  0
LINE
  5
103
330
1F
100
AcDbEntity
  8
6
  6
Continuous
 62
    14
370
     9
100
AcDbLine
 10
0.9999999999999822
 20
-10.95
 30
0.0
 11
-1.000000000000018
 21
-10.95
 31
0.0
  0
LINE
  5
104
330
1F
100
AcDbEntity
  8
6
  6
Continuous
 62
    14
370
     9
100
AcDbLine
 10
0.9999999999999822
 20
-11.05
 30
0.0
 11
0.9999999999999822
 21
-10.95
 31
0.0
  0
LINE
  5
105
330
1F
100
AcDbEntity
  8
6
  6
Continuous
 62
    14
370
     9
100
AcDbLine
 10
0.9999999999999822
 20
-11.045
 30
0.0
 11
-1.000000000000018
 21
-11.045
 31
0.0
  0
LINE
  5
106
330
1F
100
AcDbEntity
  8
6
  6
Continuous
 62
    14
370
     9
100
AcDbLine
 10
0.9999999999999822
 20
-11.03
 30
0.0
 11
-1.000000000000018
 21
-11.03
 31
0.0
  0
LINE
  5
107
330
1F
100
AcDbEntity
  8
6
  6
Continuous
 62
    14
370
     9
100
AcDbLine
 10
0.9999999999999822
 20
-11.015
 30
0.0
 11
-1.000000000000018
 21
-11.015
 31
0.0
  0
LINE
  5
108
330
1F
100
AcDbEntity
  8
6
  6
Continuous
 62
    14
370
     9
100
AcDbLine
 10
0.9999999999999822
 20
-11.0
 30
0.0
 11
-1.000000000000018
 21
-11.0
 31
0.0
  0
LINE
  5
109
330
1F
100
AcDbEntity
  8
6
  6
Continuous
 62
    14
370
     9
100
AcDbLine
 10
0.9999999999999822
 20
-10.985
 30
0.0
 11
-1.000000000000018
 21
-10.985
 31
0.0
  0
LINE
  5
10A
330
1F
100
AcDbEntity
  8
6
  6
Continuous
 62
    14
370
     9
100
AcDbLine
 10
0.9999999999999822
 20
-10.97
 30
0.0
 11
-1.000000000000018
 21
-10.97
 31
0.0
  0
LINE
  5
10B
330
1F
100
AcDbEntity
  8
6
  6
Continuous
 62
    14
370
     9
100
AcDbLine
 10
0.9999999999999822
 20
-10.955
 30
0.0
 11
-1.000000000000018
 21
-10.955
 31
0.0
  0
LINE
  5
10C
330
1F
100
AcDbEntity
  8
6
  6
Continuous
 62
    14
370
     9
100
AcDbLine
 10
-0.0500000000000158
 20
-10.0
 30
0.0
 11
-0.0500000000000194
 21
-12.0
 31
0.0
  0
LINE
  5
10D
330
1F
100
AcDbEntity
  8
6
  6
Continuous
 62
    14
370
     9
100
AcDbLine
 10
0.0499999999999838
 20
-10.0
 30
0.0
 11
-0.0500000000000158
 21
-10.0
 31
0.0
  0
LINE
  5
10E
330
1F
100
AcDbEntity
  8
6
  6
Continuous
 62
    14
370
     9
100
AcDbLine
 10
0.0499999999999803
 20
-12.0
 30
0.0
 11
0.0499999999999838
 21
-10.0
 31
0.0
  0
LINE
  5
10F
330
1F
100
AcDbEntity
  8
6
  6
Continuous
 62
    14
370
     9
100
AcDbLine
 10
-0.0500000000000194
 20
-12.0
 30
0.0
 11
0.0499999999999803
 21
-12.0
 31
0.0
  0
LINE
  5
110
330
1F
100
AcDbEntity
  8
6
  6
Continuous
 62
    14
370
     9
100
AcDbLine
 10
-0.0450000000000195
 20
-12.0
 30
0.0
 11
-0.0450000000000159
 21
-10.0
 31
0.0
  0
LINE
  5
111
330
1F
100
AcDbEntity
  8
6
  6
Continuous
 62
    14
370
     9
100
AcDbLine
 10
-0.0300000000000198
 20
-12.0
 30
0.0
 11
-0.0300000000000162
 21
-10.0
 31
0.0
  0
LINE
  5
112
330
1F
100
AcDbEntity
  8
6
  6
Continuous
 62
    14
370
     9
100
AcDbLine
 10
-0.0150000000000192
 20
-12.0
 30
0.0
 11
-0.0150000000000166
 21
-10.0
 31
0.0
  0
LINE
  5
113
330
1F
100
AcDbEntity
  8
6
  6
Continuous
 62
    14
370
     9
100
AcDbLine
 10
-0.0000000000000195
 20
-12.0
 30
0.0
 11
-0.000000000000016
 21
-10.0
 31
0.0
  0
LINE
  5
114
330
1F
100
AcDbEntity
  8
6
  6
Continuous
 62
    14
370
     9
100
AcDbLine
 10
0.014999999999981
 20
-12.0
 30
0.0
 11
0.0149999999999837
 21
-10.0
 31
0.0
  0
LINE
  5
115
330
1F
100
AcDbEntity
  8
6
  6
Continuous
 62
    14
370
     9
100
AcDbLine
 10
0.0299999999999807
 20
-12.0
 30
0.0
 11
0.0299999999999843
 21
-10.0
 31
0.0
  0
LINE
  5
116
330
1F
100
AcDbEntity
  8
6
  6
Continuous
 62
    14
370
     9
100
AcDbLine
 10
0.0449999999999804
 20
-12.0
 30
0.0
 11
0.0449999999999839
 21
-10.0
 31
0.0
  0
LINE
  5
117
330
1F
100
AcDbEntity
  8
6
  6
Continuous
 62
    14
370
     9
100
AcDbLine
 10
-1.000000000000018
 20
-11.05
 30
0.0
 11
0.9999999999999822
 21
-11.05000000000001
 31
0.0
  0
LINE
  5
118
330
1F
100
AcDbEntity
  8
6
  6
Continuous
 62
    14
370
     9
100
AcDbLine
 10
-1.000000000000018
 20
-10.94999999999999
 30
0.0
 11
-1.000000000000018
 21
-11.05
 31
0.0
  0
LINE
  5
119
330
1F
100
AcDbEntity
  8
6
  6
Continuous
 62
    14
370
     9
100
AcDbLine
 10
0.9999999999999822
 20
-10.95
 30
0.0
 11
-1.000000000000018
 21
-10.94999999999999
 31
0.0
  0
LINE
  5
11A
330
1F
100
AcDbEntity
  8
6
  6
Continuous
 62
    14
370
     9
100
AcDbLine
 10
0.9999999999999822
 20
-11.05000000000001
 30
0.0
 11
0.9999999999999822
 21
-10.95
 31
0.0
  0
LINE
  5
11B
330
1F
100
AcDbEntity
  8
6
  6
Continuous
 62
    14
370
     9
100
AcDbLine
 10
0.9999999999999822
 20
-11.045
 30
0.0
 11
-1.000000000000018
 21
-11.045
 31
0.0
  0
LINE
  5
11C
330
1F
100
AcDbEntity
  8
6
  6
Continuous
 62
    14
370
     9
100
AcDbLine
 10
0.9999999999999822
 20
-11.03
 30
0.0
 11
-1.000000000000018
 21
-11.03
 31
0.0
  0
LINE
  5
11D
330
1F
100
AcDbEntity
  8
6
  6
Continuous
 62
    14
370
     9
100
AcDbLine
 10
0.9999999999999822
 20
-11.015
 30
0.0
 11
-1.000000000000018
 21
-11.015
 31
0.0
  0
LINE
  5
11E
330
1F
100
AcDbEntity
  8
6
  6
Continuous
 62
    14
370
     9
100
AcDbLine
 10
0.9999999999999822
 20
-11.0
 30
0.0
 11
-1.000000000000018
 21
-11.0
 31
0.0
  0
LINE
  5
11F
330
1F
100
AcDbEntity
  8
6
  6
Continuous
 62
    14
370
     9
100
AcDbLine
 10
0.9999999999999822
 20
-10.985
 30
0.0
 11
-1.000000000000018
 21
-10.985
 31
0.0
  0
LINE
  5
120
330
1F
100
AcDbEntity
  8
6
  6
Continuous
 62
    14
370
     9
100
AcDbLine
 10
0.9999999999999822
 20
-10.97
 30
0.0
 11
-1.000000000000018
 21
-10.97
 31
0.0
  0
LINE
  5
121
330
1F
100
AcDbEntity
  8
6
  6
Continuous
 62
    14
370
     9
100
AcDbLine
 10
0.9999999999999822
 20
-10.955
 30
0.0
 11
-1.000000000000018
 21
-10.955
 31
0.0
  0
LINE
  5
122
330
1F
100
AcDbEntity
  8
7
  6
Continuous
 62
     4
370
     9
100
AcDbLine
 10
-0.0499999999999803
 20
12.0
 30
0.0
 11
-0.0499999999999838
 21
10.0
 31
0.0
  0
LINE
  5
123
330
1F
100
AcDbEntity
  8
7
  6
Continuous
 62
     4
370
     9
100
AcDbLine
 10
0.0500000000000194
 20
12.0
 30
0.0
 11
-0.0499999999999803
 21
12.0
 31
0.0
  0
LINE
  5
124
330
1F
100
AcDbEntity
  8
7
  6
Continuous
 62
     4
370
     9
100
AcDbLine
 10
0.0500000000000158
 20
10.0
 30
0.0
 11
0.0500000000000194
 21
12.0
 31
0.0
  0
LINE
  5
125
330
1F
100
AcDbEntity
  8
7
  6
Continuous
 62
     4
370
     9
100
AcDbLine
 10
-0.0499999999999838
 20
10.0
 30
0.0
 11
0.0500000000000158
 21
10.0
 31
0.0
  0
LINE
  5
126
330
1F
100
AcDbEntity
  8
7
  6
Continuous
 62
     4
370
     9
100
AcDbLine
 10
-0.0449999999999839
 20
10.0
 30
0.0
 11
-0.0449999999999804
 21
12.0
 31
0.0
  0
LINE
  5
127
330
1F
100
AcDbEntity
  8
7
  6
Continuous
 62
     4
370
     9
100
AcDbLine
 10
-0.0299999999999843
 20
10.0
 30
0.0
 11
-0.0299999999999807
 21
12.0
 31
0.0
  0
LINE
  5
128
330
1F
100
AcDbEntity
  8
7
  6
Continuous
 62
     4
370
     9
100
AcDbLine
 10
-0.0149999999999837
 20
10.0
 30
0.0
 11
-0.014999999999981
 21
12.0
 31
0.0
  0
LINE
  5
129
330
1F
100
AcDbEntity
  8
7
  6
Continuous
 62
     4
370
     9
100
AcDbLine
 10
0.000000000000016
 20
10.0
 30
0.0
 11
0.0000000000000195
 21
12.0
 31
0.0
  0
LINE
  5
12A
330
1F
100
AcDbEntity
  8
7
  6
Continuous
 62
     4
370
     9
100
AcDbLine
 10
0.0150000000000166
 20
10.0
 30
0.0
 11
0.0150000000000192
 21
12.0
 31
0.0
  0
LINE
  5
12B
330
1F
100
AcDbEntity
  8
7
  6
Continuous
 62
     4
370
     9
100
AcDbLine
 10
0.0300000000000162
 20
10.0
 30
0.0
 11
0.0300000000000198
 21
12.0
 31
0.0
  0
LINE
  5
12C
330
1F
100
AcDbEntity
  8
7
  6
Continuous
 62
     4
370
     9
100
AcDbLine
 10
0.0450000000000159
 20
10.0
 30
0.0
 11
0.0450000000000195
 21
12.0
 31
0.0
  0
LINE
  5
12D
330
1F
100
AcDbEntity
  8
7
  6
Continuous
 62
     4
370
     9
100
AcDbLine
 10
-0.9999999999999822
 20
10.95
 30
0.0
 11
1.000000000000018
 21
10.95
 31
0.0
  0
LINE
  5
12E
330
1F
100
AcDbEntity
  8
7
  6
Continuous
 62
     4
370
     9
100
AcDbLine
 10
-0.9999999999999822
 20
11.05
 30
0.0
 11
-0.9999999999999822
 21
10.95
 31
0.0
  0
LINE
  5
12F
330
1F
100
AcDbEntity
  8
7
  6
Continuous
 62
     4
370
     9
100
AcDbLine
 10
1.000000000000018
 20
11.05
 30
0.0
 11
-0.9999999999999822
 21
11.05
 31
0.0
  0
LINE
  5
130
330
1F
100
AcDbEntity
  8
7
  6
Continuous
 62
     4
370
     9
100
AcDbLine
 10
1.000000000000018
 20
10.95
 30
0.0
 11
1.000000000000018
 21
11.05
 31
0.0
  0
LINE
  5
131
330
1F
100
AcDbEntity
  8
7
  6
Continuous
 62
     4
370
     9
100
AcDbLine
 10
1.000000000000018
 20
10.955
 30
0.0
 11
-0.9999999999999822
 21
10.955
 31
0.0
  0
LINE
  5
132
330
1F
100
AcDbEntity
  8
7
  6
Continuous
 62
     4
370
     9
100
AcDbLine
 10
1.000000000000018
 20
10.97
 30
0.0
 11
-0.9999999999999822
 21
10.97
 31
0.0
  0
LINE
  5
133
330
1F
100
AcDbEntity
  8
7
  6
Continuous
 62
     4
370
     9
100
AcDbLine
 10
1.000000000000018
 20
10.985
 30
0.0
 11
-0.9999999999999822
 21
10.985
 31
0.0
  0
LINE
  5
134
330
1F
100
AcDbEntity
  8
7
  6
Continuous
 62
     4
370
     9
100
AcDbLine
 10
1.000000000000018
 20
11.0
 30
0.0
 11
-0.9999999999999822
 21
11.0
 31
0.0
  0
LINE
  5
135
330
1F
100
AcDbEntity
  8
7
  6
Continuous
 62
     4
370
     9
100
AcDbLine
 10
1.000000000000018
 20
11.015
 30
0.0
 11
-0.9999999999999822
 21
11.015
 31
0.0
  0
LINE
  5
136
330
1F
100
AcDbEntity
  8
7
  6
Continuous
 62
     4
370
     9
100
AcDbLine
 10
1.000000000000018
 20
11.03
 30
0.0
 11
-0.9999999999999822
 21
11.03
 31
0.0
  0
LINE
  5
137
330
1F
100
AcDbEntity
  8
7
  6
Continuous
 62
     4
370
     9
100
AcDbLine
 10
1.000000000000018
 20
11.045
 30
0.0
 11
-0.9999999999999822
 21
11.045
 31
0.0
  0
LINE
  5
138
330
1F
100
AcDbEntity
  8
7
  6
Continuous
 62
     4
370
     9
100
AcDbLine
 10
-0.0499999999999803
 20
12.0
 30
0.0
 11
-0.0499999999999838
 21
10.0
 31
0.0
  0
LINE
  5
139
330
1F
100
AcDbEntity
  8
7
  6
Continuous
 62
     4
370
     9
100
AcDbLine
 10
0.0500000000000194
 20
12.0
 30
0.0
 11
-0.0499999999999803
 21
12.0
 31
0.0
  0
LINE
  5
13A
330
1F
100
AcDbEntity
  8
7
  6
Continuous
 62
     4
370
     9
100
AcDbLine
 10
0.0500000000000158
 20
10.0
 30
0.0
 11
0.0500000000000194
 21
12.0
 31
0.0
  0
LINE
  5
13B
330
1F
100
AcDbEntity
  8
7
  6
Continuous
 62
     4
370
     9
100
AcDbLine
 10
-0.0499999999999838
 20
10.0
 30
0.0
 11
0.0500000000000158
 21
10.0
 31
0.0
  0
LINE
  5
13C
330
1F
100
AcDbEntity
  8
7
  6
Continuous
 62
     4
370
     9
100
AcDbLine
 10
-0.0449999999999839
 20
10.0
 30
0.0
 11
-0.0449999999999804
 21
12.0
 31
0.0
  0
LINE
  5
13D
330
1F
100
AcDbEntity
  8
7
  6
Continuous
 62
     4
370
     9
100
AcDbLine
 10
-0.0299999999999843
 20
10.0
 30
0.0
 11
-0.0299999999999807
 21
12.0
 31
0.0
  0
LINE
  5
13E
330
1F
100
AcDbEntity
  8
7
  6
Continuous
 62
     4
370
     9
100
AcDbLine
 10
-0.0149999999999837
 20
10.0
 30
0.0
 11
-0.014999999999981
 21
12.0
 31
0.0
  0
LINE
  5
13F
330
1F
100
AcDbEntity
  8
7
  6
Continuous
 62
     4
370
     9
100
AcDbLine
 10
0.000000000000016
 20
10.0
 30
0.0
 11
0.0000000000000195
 21
12.0
 31
0.0
  0
LINE
  5
140
330
1F
100
AcDbEntity
  8
7
  6
Continuous
 62
     4
370
     9
100
AcDbLine
 10
0.0150000000000166
 20
10.0
 30
0.0
 11
0.0150000000000192
 21
12.0
 31
0.0
  0
LINE
  5
141
330
1F
100
AcDbEntity
  8
7
  6
Continuous
 62
     4
370
     9
100
AcDbLine
 10
0.0300000000000162
 20
10.0
 30
0.0
 11
0.0300000000000198
 21
12.0
 31
0.0
  0
LINE
  5
142
330
1F
100
AcDbEntity
  8
7
  6
Continuous
 62
     4
370
     9
100
AcDbLine
 10
0.0450000000000159
 20
10.0
 30
0.0
 11
0.0450000000000195
 21
12.0
 31
0.0
  0
LINE
  5
143
330
1F
100
AcDbEntity
  8
7
  6
Continuous
 62
     4
370
     9
100
AcDbLine
 10
-0.9999999999999822
 20
10.95
 30
0.0
 11
1.000000000000018
 21
10.94999999999999
 31
0.0
  0
LINE
  5
144
330
1F
100
AcDbEntity
  8
7
  6
Continuous
 62
     4
370
     9
100
AcDbLine
 10
-0.9999999999999822
 20
11.05000000000001
 30
0.0
 11
-0.9999999999999822
 21
10.95
 31
0.0
  0
LINE
  5
145
330
1F
100
AcDbEntity
  8
7
  6
Continuous
 62
     4
370
     9
100
AcDbLine
 10
1.000000000000018
 20
11.05
 30
0.0
 11
-0.9999999999999822
 21
11.05000000000001
 31
0.0
  0
LINE
  5
146
330
1F
100
AcDbEntity
  8
7
  6
Continuous
 62
     4
370
     9
100
AcDbLine
 10
1.000000000000018
 20
10.94999999999999
 30
0.0
 11
1.000000000000018
 21
11.05
 31
0.0
  0
LINE
  5
147
330
1F
100
AcDbEntity
  8
7
  6
Continuous
 62
     4
370
     9
100
AcDbLine
 10
1.000000000000018
 20
10.955
 30
0.0
 11
-0.9999999999999822
 21
10.955
 31
0.0
  0
LINE
  5
148
330
1F
100
AcDbEntity
  8
7
  6
Continuous
 62
     4
370
     9
100
AcDbLine
 10
1.000000000000018
 20
10.97
 30
0.0
 11
-0.9999999999999822
 21
10.97
 31
0.0
  0
LINE
  5
149
330
1F
100
AcDbEntity
  8
7
  6
Continuous
 62
     4
370
     9
100
AcDbLine
 10
1.000000000000018
 20
10.985
 30
0.0
 11
-0.9999999999999822
 21
10.985
 31
0.0
  0
LINE
  5
14A
330
1F
100
AcDbEntity
  8
7
  6
Continuous
 62
     4
370
     9
100
AcDbLine
 10
1.000000000000018
 20
11.0
 30
0.0
 11
-0.9999999999999822
 21
11.0
 31
0.0
  0
LINE
  5
14B
330
1F
100
AcDbEntity
  8
7
  6
Continuous
 62
     4
370
     9
100
AcDbLine
 10
1.000000000000018
 20
11.015
 30
0.0
 11
-0.9999999999999822
 21
11.015
 31
0.0
  0
LINE
  5
14C
330
1F
100
AcDbEntity
  8
7
  6
Continuous
 62
     4
370
     9
100
AcDbLine
 10
1.000000000000018
 20
11.03
 30
0.0
 11
-0.9999999999999822
 21
11.03
 31
0.0
  0
LINE
  5
14D
330
1F
100
AcDbEntity
  8
7
  6
Continuous
 62
     4
370
     9
100
AcDbLine
 10
1.000000000000018
 20
11.045
 30
0.0
 11
-0.9999999999999822
 21
11.045
 31
0.0
  0
LINE
  5
14E
330
1F
100
AcDbEntity
  8
2
  6
Continuous
 62
   134
370
     9
100
AcDbLine
 10
-0.2355000000000083
 20
-5.100499999999997
 30
0.0
 11
-0.2354999999999923
 21
5.100500000000004
 31
0.0
  0
LINE
  5
14F
330
1F
100
AcDbEntity
  8
2
  6
Continuous
 62
   134
370
     9
100
AcDbLine
 10
-0.2355000000000083
 20
-5.100499999999997
 30
0.0
 11
-0.2354999999999923
 21
5.100500000000004
 31
0.0
  0
LINE
  5
150
330
1F
100
AcDbEntity
  8
1
  6
Continuous
 62
     7
370
     9
100
AcDbLine
 10
-0.074999999999992
 20
8.160800000000007
 30
0.0
 11
-0.075000000000008
 21
-8.160799999999993
 31
0.0
  0
LINE
  5
151
330
1F
100
AcDbEntity
  8
1
  6
Continuous
 62
     7
370
     9
100
AcDbLine
 10
-0.074999999999992
 20
8.160800000000007
 30
0.0
 11
-0.075000000000008
 21
-8.160799999999993
 31
0.0
  0
LINE
  5
152
330
1F
100
AcDbEntity
  8
1
  6
Continuous
 62
     7
370
     9
100
AcDbLine
 10
0.0694999999999924
 20
-8.160799999999995
 30
0.0
 11
0.0695000000000083
 21
8.160800000000007
 31
0.0
  0
LINE
  5
153
330
1F
100
AcDbEntity
  8
1
  6
Continuous
 62
     7
370
     9
100
AcDbLine
 10
0.0694999999999924
 20
-8.160799999999995
 30
0.0
 11
0.0695000000000083
 21
8.160800000000007
 31
0.0
  0
LINE
  5
154
330
1F
100
AcDbEntity
  8
3
  6
Continuous
 62
   214
370
     9
100
AcDbLine
 10
0.2300000000000078
 20
5.100500000000005
 30
0.0
 11
0.2299999999999918
 21
-5.100499999999996
 31
0.0
  0
LINE
  5
155
330
1F
100
AcDbEntity
  8
2
  6
Continuous
 62
   134
370
     9
100
AcDbLine
 10
-0.3799999999999917
 20
5.100500000000005
 30
0.0
 11
-0.3800000000000077
 21
-5.100499999999996
 31
0.0
  0
LINE
  5
156
330
1F
100
AcDbEntity
  8
2
  6
Continuous
 62
   134
370
     9
100
AcDbLine
 10
-0.3799999999999917
 20
5.100500000000005
 30
0.0
 11
-0.3800000000000077
 21
-5.100499999999996
 31
0.0
  0
LINE
  5
157
330
1F
100
AcDbEntity
  8
3
  6
Continuous
 62
   214
370
     9
100
AcDbLine
 10
0.3744999999999921
 20
-5.100499999999997
 30
0.0
 11
0.374500000000008
 21
5.100500000000004
 31
0.0
  0
LINE
  5
158
330
1F
100
AcDbEntity
  8
5
  6
Continuous
 62
    94
370
     9
100
AcDbLine
 10
-0.3802334572110392
 20
-5.078625000000003
 30
0.0
 11
0.374870957211024
 21
-5.078625000000003
 31
0.0
  0
LINE
  5
159
330
1F
100
AcDbEntity
  8
5
  6
Continuous
 62
    94
370
     9
100
AcDbLine
 10
-0.3800162289741568
 20
-5.088625000000003
 30
0.0
 11
0.3746537289741416
 21
-5.088625000000003
 31
0.0
  0
LINE
  5
15A
330
1F
100
AcDbEntity
  8
5
  6
Continuous
 62
    94
370
     9
100
AcDbLine
 10
-0.3795467147814352
 20
-5.098625000000003
 30
0.0
 11
0.37418421478142
 21
-5.098625000000003
 31
0.0
  0
LINE
  5
15B
330
1F
100
AcDbEntity
  8
5
  6
Continuous
 62
    94
370
     9
100
AcDbLine
 10
-0.378823969898215
 20
-5.108625000000003
 30
0.0
 11
0.3734614698981998
 21
-5.108625000000003
 31
0.0
  0
LINE
  5
15C
330
1F
100
AcDbEntity
  8
5
  6
Continuous
 62
    94
370
     9
100
AcDbLine
 10
-0.3778465308029109
 20
-5.118625000000002
 30
0.0
 11
0.3724840308028957
 21
-5.118625000000002
 31
0.0
  0
LINE
  5
15D
330
1F
100
AcDbEntity
  8
5
  6
Continuous
 62
    94
370
     9
100
AcDbLine
 10
-0.3766124002234426
 20
-5.128625000000002
 30
0.0
 11
0.3712499002234274
 21
-5.128625000000002
 31
0.0
  0
LINE
  5
15E
330
1F
100
AcDbEntity
  8
5
  6
Continuous
 62
    94
370
     9
100
AcDbLine
 10
-0.3751190264069143
 20
-5.138625000000002
 30
0.0
 11
0.3697565264068991
 21
-5.138625000000002
 31
0.0
  0
LINE
  5
15F
330
1F
100
AcDbEntity
  8
5
  6
Continuous
 62
    94
370
     9
100
AcDbLine
 10
-0.3733632761119043
 20
-5.148625000000002
 30
0.0
 11
0.3680007761118891
 21
-5.148625000000002
 31
0.0
  0
LINE
  5
160
330
1F
100
AcDbEntity
  8
5
  6
Continuous
 62
    94
370
     9
100
AcDbLine
 10
-0.3713414006400257
 20
-5.158625000000002
 30
0.0
 11
0.3659789006400105
 21
-5.158625000000002
 31
0.0
  0
LINE
  5
161
330
1F
100
AcDbEntity
  8
5
  6
Continuous
 62
    94
370
     9
100
AcDbLine
 10
-0.3690489940188019
 20
-5.168625000000001
 30
0.0
 11
0.3636864940187867
 21
-5.168625000000001
 31
0.0
  0
LINE
  5
162
330
1F
100
AcDbEntity
  8
5
  6
Continuous
 62
    94
370
     9
100
AcDbLine
 10
-0.3664809422001532
 20
-5.178625000000001
 30
0.0
 11
0.361118442200138
 21
-5.178625000000001
 31
0.0
  0
LINE
  5
163
330
1F
100
AcDbEntity
  8
5
  6
Continuous
 62
    94
370
     9
100
AcDbLine
 10
-0.3636313618332368
 20
-5.188625000000001
 30
0.0
 11
0.3582688618332216
 21
-5.188625000000001
 31
0.0
  0
LINE
  5
164
330
1F
100
AcDbEntity
  8
5
  6
Continuous
 62
    94
370
     9
100
AcDbLine
 10
-0.3604935267875999
 20
-5.198625000000001
 30
0.0
 11
0.3551310267875847
 21
-5.198625000000001
 31
0.0
  0
LINE
  5
165
330
1F
100
AcDbEntity
  8
5
  6
Continuous
 62
    94
370
     9
100
AcDbLine
 10
-0.3570597801163516
 20
-5.208625000000001
 30
0.0
 11
0.3516972801163364
 21
-5.208625000000001
 31
0.0
  0
LINE
  5
166
330
1F
100
AcDbEntity
  8
5
  6
Continuous
 62
    94
370
     9
100
AcDbLine
 10
-0.3533214285234058
 20
-5.218625
 30
0.0
 11
0.3479589285233906
 21
-5.218625
 31
0.0
  0
LINE
  5
167
330
1F
100
AcDbEntity
  8
5
  6
Continuous
 62
    94
370
     9
100
AcDbLine
 10
-0.3492686155839546
 20
-5.228625
 30
0.0
 11
0.3439061155839394
 21
-5.228625
 31
0.0
  0
LINE
  5
168
330
1F
100
AcDbEntity
  8
5
  6
Continuous
 62
    94
370
     9
100
AcDbLine
 10
-0.3448901688930143
 20
-5.238625
 30
0.0
 11
0.3395276688929991
 21
-5.238625
 31
0.0
  0
LINE
  5
169
330
1F
100
AcDbEntity
  8
5
  6
Continuous
 62
    94
370
     9
100
AcDbLine
 10
-0.3401734148830171
 20
-5.248625
 30
0.0
 11
0.3348109148830019
 21
-5.248625
 31
0.0
  0
LINE
  5
16A
330
1F
100
AcDbEntity
  8
5
  6
Continuous
 62
    94
370
     9
100
AcDbLine
 10
-0.3351039531129576
 20
-5.258624999999999
 30
0.0
 11
0.3297414531129424
 21
-5.258624999999999
 31
0.0
  0
LINE
  5
16B
330
1F
100
AcDbEntity
  8
5
  6
Continuous
 62
    94
370
     9
100
AcDbLine
 10
-0.3296653791751413
 20
-5.268624999999999
 30
0.0
 11
0.3243028791751261
 21
-5.268624999999999
 31
0.0
  0
LINE
  5
16C
330
1F
100
AcDbEntity
  8
5
  6
Continuous
 62
    94
370
     9
100
AcDbLine
 10
-0.3238389416717477
 20
-5.278624999999999
 30
0.0
 11
0.3184764416717325
 21
-5.278624999999999
 31
0.0
  0
LINE
  5
16D
330
1F
100
AcDbEntity
  8
5
  6
Continuous
 62
    94
370
     9
100
AcDbLine
 10
-0.3176031134954158
 20
-5.288624999999999
 30
0.0
 11
0.3122406134954006
 21
-5.288624999999999
 31
0.0
  0
LINE
  5
16E
330
1F
100
AcDbEntity
  8
5
  6
Continuous
 62
    94
370
     9
100
AcDbLine
 10
-0.3109330501487181
 20
-5.298624999999999
 30
0.0
 11
0.3055705501487029
 21
-5.298624999999999
 31
0.0
  0
LINE
  5
16F
330
1F
100
AcDbEntity
  8
5
  6
Continuous
 62
    94
370
     9
100
AcDbLine
 10
-0.3037998968527401
 20
-5.308624999999998
 30
0.0
 11
0.2984373968527249
 21
-5.308624999999998
 31
0.0
  0
LINE
  5
170
330
1F
100
AcDbEntity
  8
5
  6
Continuous
 62
    94
370
     9
100
AcDbLine
 10
-0.2961698897629815
 20
-5.318624999999998
 30
0.0
 11
0.2908073897629663
 21
-5.318624999999998
 31
0.0
  0
LINE
  5
171
330
1F
100
AcDbEntity
  8
5
  6
Continuous
 62
    94
370
     9
100
AcDbLine
 10
-0.2880031714456279
 20
-5.328624999999998
 30
0.0
 11
0.2826406714456127
 21
-5.328624999999998
 31
0.0
  0
LINE
  5
172
330
1F
100
AcDbEntity
  8
5
  6
Continuous
 62
    94
370
     9
100
AcDbLine
 10
-0.2792522011950324
 20
-5.338624999999998
 30
0.0
 11
0.2738897011950172
 21
-5.338624999999998
 31
0.0
  0
LINE
  5
173
330
1F
100
AcDbEntity
  8
5
  6
Continuous
 62
    94
370
     9
100
AcDbLine
 10
-0.2698595766517419
 20
-5.348624999999998
 30
0.0
 11
0.2644970766517267
 21
-5.348624999999998
 31
0.0
  0
LINE
  5
174
330
1F
100
AcDbEntity
  8
5
  6
Continuous
 62
    94
370
     9
100
AcDbLine
 10
-0.2597549756506873
 20
-5.358624999999997
 30
0.0
 11
0.2543924756506721
 21
-5.358624999999997
 31
0.0
  0
LINE
  5
175
330
1F
100
AcDbEntity
  8
5
  6
Continuous
 62
    94
370
     9
100
AcDbLine
 10
-0.2488507395949227
 20
-5.368624999999997
 30
0.0
 11
0.2434882395949075
 21
-5.368624999999997
 31
0.0
  0
LINE
  5
176
330
1F
100
AcDbEntity
  8
5
  6
Continuous
 62
    94
370
     9
100
AcDbLine
 10
-0.23703527662409
 20
-5.378624999999997
 30
0.0
 11
0.2316727766240748
 21
-5.378624999999997
 31
0.0
  0
LINE
  5
177
330
1F
100
AcDbEntity
  8
5
  6
Continuous
 62
    94
370
     9
100
AcDbLine
 10
-0.2241627999819897
 20
-5.388624999999997
 30
0.0
 11
0.2188002999819745
 21
-5.388624999999997
 31
0.0
  0
LINE
  5
178
330
1F
100
AcDbEntity
  8
5
  6
Continuous
 62
    94
370
     9
100
AcDbLine
 10
-0.210036546942047
 20
-5.398624999999996
 30
0.0
 11
0.2046740469420318
 21
-5.398624999999996
 31
0.0
  0
LINE
  5
179
330
1F
100
AcDbEntity
  8
5
  6
Continuous
 62
    94
370
     9
100
AcDbLine
 10
-0.1943795451343709
 20
-5.408624999999996
 30
0.0
 11
0.1890170451343557
 21
-5.408624999999996
 31
0.0
  0
LINE
  5
17A
330
1F
100
AcDbEntity
  8
5
  6
Continuous
 62
    94
370
     9
100
AcDbLine
 10
-0.1767792929095176
 20
-5.418624999999996
 30
0.0
 11
0.1714167929095024
 21
-5.418624999999996
 31
0.0
  0
LINE
  5
17B
330
1F
100
AcDbEntity
  8
5
  6
Continuous
 62
    94
370
     9
100
AcDbLine
 10
-0.1565704820223351
 20
-5.428624999999996
 30
0.0
 11
0.1512079820223199
 21
-5.428624999999996
 31
0.0
  0
LINE
  5
17C
330
1F
100
AcDbEntity
  8
5
  6
Continuous
 62
    94
370
     9
100
AcDbLine
 10
-0.1325409355067955
 20
-5.438624999999996
 30
0.0
 11
0.1271784355067803
 21
-5.438624999999996
 31
0.0
  0
LINE
  5
17D
330
1F
100
AcDbEntity
  8
5
  6
Continuous
 62
    94
370
     9
100
AcDbLine
 10
-0.3802500000000075
 20
-5.074999999999995
 30
0.0
 11
0.3748874999999923
 21
-5.074999999999997
 31
0.0
  0
ELLIPSE
  5
17E
330
1F
100
AcDbEntity
  8
5
  6
Continuous
 62
    94
370
     9
100
AcDbEllipse
 10
-0.0026812500000076
 20
-5.074999999999996
 30
0.0
 11
6.256196364490190E-16
 21
0.3872499999999999
 31
0.0
210
0.0
220
0.0
230
1.0
 40
0.9749999999999999
 41
1.570796326794896
 42
4.712388980384678
  0
LINE
  5
17F
330
1F
100
AcDbEntity
  8
5
  6
Continuous
 62
    94
370
     9
100
AcDbLine
 10
-0.1019538802030098
 20
-5.448624999999995
 30
0.0
 11
0.0965913802029946
 21
-5.448624999999995
 31
0.0
  0
LINE
  5
180
330
1F
100
AcDbEntity
  8
5
  6
Continuous
 62
    94
370
     9
100
AcDbLine
 10
-0.0542219843265786
 20
-5.458624999999995
 30
0.0
 11
0.0488594843265634
 21
-5.458624999999995
 31
0.0
  0
LINE
  5
181
330
1F
100
AcDbEntity
  8
4
  6
Continuous
 62
    54
370
     9
100
AcDbLine
 10
-0.1325409355068036
 20
5.438624999999996
 30
0.0
 11
0.1271784355068196
 21
5.438624999999996
 31
0.0
  0
LINE
  5
182
330
1F
100
AcDbEntity
  8
4
  6
Continuous
 62
    54
370
     9
100
AcDbLine
 10
-0.1565704820223389
 20
5.428624999999996
 30
0.0
 11
0.1512079820223548
 21
5.428624999999996
 31
0.0
  0
LINE
  5
183
330
1F
100
AcDbEntity
  8
4
  6
Continuous
 62
    54
370
     9
100
AcDbLine
 10
-0.1767792929095187
 20
5.418624999999996
 30
0.0
 11
0.1714167929095346
 21
5.418624999999996
 31
0.0
  0
LINE
  5
184
330
1F
100
AcDbEntity
  8
4
  6
Continuous
 62
    54
370
     9
100
AcDbLine
 10
-0.19437954513437
 20
5.408624999999996
 30
0.0
 11
0.189017045134386
 21
5.408624999999996
 31
0.0
  0
LINE
  5
185
330
1F
100
AcDbEntity
  8
4
  6
Continuous
 62
    54
370
     9
100
AcDbLine
 10
-0.2100365469420446
 20
5.398624999999996
 30
0.0
 11
0.2046740469420606
 21
5.398624999999996
 31
0.0
  0
LINE
  5
186
330
1F
100
AcDbEntity
  8
4
  6
Continuous
 62
    54
370
     9
100
AcDbLine
 10
-0.224162799981986
 20
5.388624999999997
 30
0.0
 11
0.218800299982002
 21
5.388624999999997
 31
0.0
  0
LINE
  5
187
330
1F
100
AcDbEntity
  8
4
  6
Continuous
 62
    54
370
     9
100
AcDbLine
 10
-0.2370352766240853
 20
5.378624999999997
 30
0.0
 11
0.2316727766241013
 21
5.378624999999997
 31
0.0
  0
LINE
  5
188
330
1F
100
AcDbEntity
  8
4
  6
Continuous
 62
    54
370
     9
100
AcDbLine
 10
-0.2488507395949172
 20
5.368624999999997
 30
0.0
 11
0.2434882395949332
 21
5.368624999999997
 31
0.0
  0
LINE
  5
189
330
1F
100
AcDbEntity
  8
4
  6
Continuous
 62
    54
370
     9
100
AcDbLine
 10
-0.259754975650681
 20
5.358624999999997
 30
0.0
 11
0.254392475650697
 21
5.358624999999997
 31
0.0
  0
LINE
  5
18A
330
1F
100
AcDbEntity
  8
4
  6
Continuous
 62
    54
370
     9
100
AcDbLine
 10
-0.269859576651735
 20
5.348624999999998
 30
0.0
 11
0.264497076651751
 21
5.348624999999998
 31
0.0
  0
LINE
  5
18B
330
1F
100
AcDbEntity
  8
4
  6
Continuous
 62
    54
370
     9
100
AcDbLine
 10
-0.2792522011950248
 20
5.338624999999998
 30
0.0
 11
0.2738897011950407
 21
5.338624999999998
 31
0.0
  0
LINE
  5
18C
330
1F
100
AcDbEntity
  8
4
  6
Continuous
 62
    54
370
     9
100
AcDbLine
 10
-0.2880031714456198
 20
5.328624999999998
 30
0.0
 11
0.2826406714456358
 21
5.328624999999998
 31
0.0
  0
LINE
  5
18D
330
1F
100
AcDbEntity
  8
4
  6
Continuous
 62
    54
370
     9
100
AcDbLine
 10
-0.2961698897629729
 20
5.318624999999998
 30
0.0
 11
0.2908073897629889
 21
5.318624999999998
 31
0.0
  0
LINE
  5
18E
330
1F
100
AcDbEntity
  8
4
  6
Continuous
 62
    54
370
     9
100
AcDbLine
 10
-0.303799896852731
 20
5.308624999999998
 30
0.0
 11
0.298437396852747
 21
5.308624999999998
 31
0.0
  0
LINE
  5
18F
330
1F
100
AcDbEntity
  8
4
  6
Continuous
 62
    54
370
     9
100
AcDbLine
 10
-0.3109330501487086
 20
5.298624999999999
 30
0.0
 11
0.3055705501487246
 21
5.298624999999999
 31
0.0
  0
LINE
  5
190
330
1F
100
AcDbEntity
  8
4
  6
Continuous
 62
    54
370
     9
100
AcDbLine
 10
-0.317603113495406
 20
5.288624999999999
 30
0.0
 11
0.3122406134954219
 21
5.288624999999999
 31
0.0
  0
LINE
  5
191
330
1F
100
AcDbEntity
  8
4
  6
Continuous
 62
    54
370
     9
100
AcDbLine
 10
-0.3238389416717375
 20
5.278624999999999
 30
0.0
 11
0.3184764416717534
 21
5.278624999999999
 31
0.0
  0
LINE
  5
192
330
1F
100
AcDbEntity
  8
4
  6
Continuous
 62
    54
370
     9
100
AcDbLine
 10
-0.3296653791751307
 20
5.268624999999999
 30
0.0
 11
0.3243028791751466
 21
5.268624999999999
 31
0.0
  0
LINE
  5
193
330
1F
100
AcDbEntity
  8
4
  6
Continuous
 62
    54
370
     9
100
AcDbLine
 10
-0.3351039531129467
 20
5.258624999999999
 30
0.0
 11
0.3297414531129626
 21
5.258624999999999
 31
0.0
  0
LINE
  5
194
330
1F
100
AcDbEntity
  8
4
  6
Continuous
 62
    54
370
     9
100
AcDbLine
 10
-0.3401734148830059
 20
5.248625
 30
0.0
 11
0.3348109148830218
 21
5.248625
 31
0.0
  0
LINE
  5
195
330
1F
100
AcDbEntity
  8
4
  6
Continuous
 62
    54
370
     9
100
AcDbLine
 10
-0.3448901688930028
 20
5.238625
 30
0.0
 11
0.3395276688930188
 21
5.238625
 31
0.0
  0
LINE
  5
196
330
1F
100
AcDbEntity
  8
4
  6
Continuous
 62
    54
370
     9
100
AcDbLine
 10
-0.3492686155839427
 20
5.228625
 30
0.0
 11
0.3439061155839587
 21
5.228625
 31
0.0
  0
LINE
  5
197
330
1F
100
AcDbEntity
  8
4
  6
Continuous
 62
    54
370
     9
100
AcDbLine
 10
-0.3533214285233936
 20
5.218625
 30
0.0
 11
0.3479589285234096
 21
5.218625
 31
0.0
  0
LINE
  5
198
330
1F
100
AcDbEntity
  8
4
  6
Continuous
 62
    54
370
     9
100
AcDbLine
 10
-0.3570597801163393
 20
5.208625000000001
 30
0.0
 11
0.3516972801163552
 21
5.208625000000001
 31
0.0
  0
LINE
  5
199
330
1F
100
AcDbEntity
  8
4
  6
Continuous
 62
    54
370
     9
100
AcDbLine
 10
-0.3604935267875873
 20
5.198625000000001
 30
0.0
 11
0.3551310267876033
 21
5.198625000000001
 31
0.0
  0
LINE
  5
19A
330
1F
100
AcDbEntity
  8
4
  6
Continuous
 62
    54
370
     9
100
AcDbLine
 10
-0.3636313618332239
 20
5.188625000000001
 30
0.0
 11
0.3582688618332398
 21
5.188625000000001
 31
0.0
  0
LINE
  5
19B
330
1F
100
AcDbEntity
  8
4
  6
Continuous
 62
    54
370
     9
100
AcDbLine
 10
-0.3664809422001401
 20
5.178625000000001
 30
0.0
 11
0.361118442200156
 21
5.178625000000001
 31
0.0
  0
LINE
  5
19C
330
1F
100
AcDbEntity
  8
4
  6
Continuous
 62
    54
370
     9
100
AcDbLine
 10
-0.3690489940187885
 20
5.168625000000001
 30
0.0
 11
0.3636864940188044
 21
5.168625000000001
 31
0.0
  0
LINE
  5
19D
330
1F
100
AcDbEntity
  8
4
  6
Continuous
 62
    54
370
     9
100
AcDbLine
 10
-0.3713414006400121
 20
5.158625000000002
 30
0.0
 11
0.365978900640028
 21
5.158625000000002
 31
0.0
  0
LINE
  5
19E
330
1F
100
AcDbEntity
  8
4
  6
Continuous
 62
    54
370
     9
100
AcDbLine
 10
-0.3733632761118905
 20
5.148625000000002
 30
0.0
 11
0.3680007761119064
 21
5.148625000000002
 31
0.0
  0
LINE
  5
19F
330
1F
100
AcDbEntity
  8
4
  6
Continuous
 62
    54
370
     9
100
AcDbLine
 10
-0.3751190264069001
 20
5.138625000000002
 30
0.0
 11
0.3697565264069161
 21
5.138625000000002
 31
0.0
  0
LINE
  5
1A0
330
1F
100
AcDbEntity
  8
4
  6
Continuous
 62
    54
370
     9
100
AcDbLine
 10
-0.3766124002234282
 20
5.128625000000002
 30
0.0
 11
0.3712499002234442
 21
5.128625000000002
 31
0.0
  0
LINE
  5
1A1
330
1F
100
AcDbEntity
  8
4
  6
Continuous
 62
    54
370
     9
100
AcDbLine
 10
-0.3778465308028963
 20
5.118625000000002
 30
0.0
 11
0.3724840308029122
 21
5.118625000000002
 31
0.0
  0
LINE
  5
1A2
330
1F
100
AcDbEntity
  8
4
  6
Continuous
 62
    54
370
     9
100
AcDbLine
 10
-0.3788239698982002
 20
5.108625000000003
 30
0.0
 11
0.3734614698982162
 21
5.108625000000003
 31
0.0
  0
LINE
  5
1A3
330
1F
100
AcDbEntity
  8
4
  6
Continuous
 62
    54
370
     9
100
AcDbLine
 10
-0.3795467147814201
 20
5.098625000000003
 30
0.0
 11
0.3741842147814361
 21
5.098625000000003
 31
0.0
  0
LINE
  5
1A4
330
1F
100
AcDbEntity
  8
4
  6
Continuous
 62
    54
370
     9
100
AcDbLine
 10
-0.3800162289741415
 20
5.088625000000003
 30
0.0
 11
0.3746537289741574
 21
5.088625000000003
 31
0.0
  0
LINE
  5
1A5
330
1F
100
AcDbEntity
  8
4
  6
Continuous
 62
    54
370
     9
100
AcDbLine
 10
-0.3802334572110237
 20
5.078625000000003
 30
0.0
 11
0.3748709572110396
 21
5.078625000000003
 31
0.0
  0
LINE
  5
1A6
330
1F
100
AcDbEntity
  8
4
  6
Continuous
 62
    54
370
     9
100
AcDbLine
 10
-0.3802499999999919
 20
5.075000000000006
 30
0.0
 11
0.3748875000000079
 21
5.075000000000004
 31
0.0
  0
ELLIPSE
  5
1A7
330
1F
100
AcDbEntity
  8
4
  6
Continuous
 62
    54
370
     9
100
AcDbEllipse
 10
-0.002681249999992
 20
5.075000000000005
 30
0.0
 11
6.256196364490190E-16
 21
0.3872499999999999
 31
0.0
210
0.0
220
0.0
230
1.0
 40
0.9749999999999999
 41
-1.570796326794895
 42
1.570796326794896
  0
LINE
  5
1A8
330
1F
100
AcDbEntity
  8
4
  6
Continuous
 62
    54
370
     9
100
AcDbLine
 10
-0.054221984326626
 20
5.458624999999995
 30
0.0
 11
0.0488594843266419
 21
5.458624999999995
 31
0.0
  0
LINE
  5
1A9
330
1F
100
AcDbEntity
  8
4
  6
Continuous
 62
    54
370
     9
100
AcDbLine
 10
-0.101953880203026
 20
5.448624999999995
 30
0.0
 11
0.0965913802030419
 21
5.448624999999995
 31
0.0
  0
VIEWPORT
  5
3F
330
1B
100
AcDbEntity
 67
     1
  8
0
100
AcDbViewport
 10
210.0
 20
148.5
 30
0.0
 40
420.0
 41
297.0
 68
     1
 69
     1
 12
210.0
 22
148.5
 13
0.0
 23
0.0
 14
0.5
 24
0.5
 15
0.5
 25
0.5
 16
0.0
 26
0.0
 36
1.0
 17
0.0
 27
0.0
 37
0.0
 42
50.0
 43
0.0
 44
0.0
 45
9.0
 50
0.0
 51
0.0
 72
   100
 90
   557152
  1

281
     0
 71
     1
 74
     0
110
0.0
120
0.0
130
0.0
111
1.0
121
0.0
131
0.0
112
0.0
122
1.0
132
0.0
 79
     0
146
0.0
  0
ENDSEC
  0
SECTION
  2
OBJECTS
  0
DICTIONARY
  5
C
330
0
100
AcDbDictionary
281
     1
  3
ACAD_GROUP
350
D
  3
ACAD_LAYOUT
350
1A
  3
ACAD_MATERIAL
350
3B
  3
ACAD_MLEADERSTYLE
350
1AC
  3
ACAD_MLINESTYLE
350
17
  3
ACAD_PLOTSETTINGS
350
19
  3
ACAD_PLOTSTYLENAME
350
E
  3
ACAD_VISUALSTYLE
350
2A
  3
AcDbVariableDictionary
350
1AA
  0
DICTIONARY
  5
D
102
{ACAD_REACTORS
330
C
102
}
330
C
100
AcDbDictionary
281
     1
  0
DICTIONARY
  5
1A
102
{ACAD_REACTORS
330
C
102
}
330
C
100
AcDbDictionary
281
     1
  3
Layout1
350
1E
  3
Layout2
350
26
  3
Model
350
22
  0
DICTIONARY
  5
3B
102
{ACAD_REACTORS
330
C
102
}
330
C
100
AcDbDictionary
281
     1
  3
ByBlock
350
3D
  3
ByLayer
350
3C
  3
Global
350
3E
  0
DICTIONARY
  5
1AC
102
{ACAD_REACTORS
330
C
102
}
330
C
100
AcDbDictionary
281
     1
  0
DICTIONARY
  5
17
102
{ACAD_REACTORS
330
C
102
}
330
C
100
AcDbDictionary
281
     1
  3
Standard
350
18
  0
DICTIONARY
  5
19
102
{ACAD_REACTORS
330
C
102
}
330
C
100
AcDbDictionary
281
     1
  0
ACDBDICTIONARYWDFLT
  5
E
102
{ACAD_REACTORS
330
C
102
}
330
C
100
AcDbDictionary
281
     1
  3
Normal
350
F
100
AcDbDictionaryWithDefault
340
F
  0
DICTIONARY
  5
2A
102
{ACAD_REACTORS
330
C
102
}
330
C
100
AcDbDictionary
281
     1
  3
2dWireframe
350
2F
  3
3D Hidden
350
31
  3
3dWireframe
350
30
  3
Basic
350
32
  3
Brighten
350
36
  3
ColorChange
350
3A
  3
Conceptual
350
34
  3
Dim
350
35
  3
Facepattern
350
39
  3
Flat
350
2B
  3
FlatWithEdges
350
2C
  3
Gouraud
350
2D
  3
GouraudWithEdges
350
2E
  3
Linepattern
350
38
  3
Realistic
350
33
  3
Thicken
350
37
  0
DICTIONARY
  5
1AA
102
{ACAD_REACTORS
330
C
102
}
330
C
100
AcDbDictionary
281
     1
  3
DIMASSOC
350
1AD
  3
HIDETEXT
350
1AE
  0
LAYOUT
  5
1E
102
{ACAD_REACTORS
330
1A
102
}
330
1A
100
AcDbPlotSettings
  1

  2
none_device
  4

  6

 40
0.0
 41
0.0
 42
0.0
 43
0.0
 44
0.0
 45
0.0
 46
0.0
 47
0.0
 48
0.0
 49
0.0
140
0.0
141
0.0
142
1.0
143
1.0
 70
   688
 72
     0
 73
     0
 74
     5
  7

 75
    16
147
1.0
148
0.0
149
0.0
100
AcDbLayout
  1
Layout1
 70
     1
 71
     1
 10
0.0
 20
0.0
 11
420.0
 21
297.0
 12
0.0
 22
0.0
 32
0.0
 14
0.0
 24
0.0
 34
0.0
 15
420.0
 25
297.0
 35
0.0
146
0.0
 13
0.0
 23
0.0
 33
0.0
 16
1.0
 26
0.0
 36
0.0
 17
0.0
 27
1.0
 37
0.0
 76
     0
330
1B
331
3F
  0
LAYOUT
  5
26
102
{ACAD_REACTORS
330
1A
102
}
330
1A
100
AcDbPlotSettings
  1

  2
none_device
  4

  6

 40
0.0
 41
0.0
 42
0.0
 43
0.0
 44
0.0
 45
0.0
 46
0.0
 47
0.0
 48
0.0
 49
0.0
140
0.0
141
0.0
142
1.0
143
1.0
 70
   688
 72
     0
 73
     0
 74
     5
  7

 75
    16
147
1.0
148
0.0
149
0.0
100
AcDbLayout
  1
Layout2
 70
     1
 71
     2
 10
0.0
 20
0.0
 11
0.0
 21
0.0
 12
0.0
 22
0.0
 32
0.0
 14
0.0
 24
0.0
 34
0.0
 15
0.0
 25
0.0
 35
0.0
146
0.0
 13
0.0
 23
0.0
 33
0.0
 16
1.0
 26
0.0
 36
0.0
 17
0.0
 27
1.0
 37
0.0
 76
     0
330
23
  0
LAYOUT
  5
22
102
{ACAD_REACTORS
330
1A
102
}
330
1A
100
AcDbPlotSettings
  1

  2
none_device
  4

  6

 40
0.0
 41
0.0
 42
0.0
 43
0.0
 44
0.0
 45
0.0
 46
0.0
 47
0.0
 48
0.0
 49
0.0
140
0.0
141
0.0
142
1.0
143
1.0
 70
  1712
 72
     0
 73
     0
 74
     0
  7

 75
     0
147
1.0
148
0.0
149
0.0
100
AcDbLayout
  1
Model
 70
     1
 71
     0
 10
0.0
 20
0.0
 11
420.0
 21
297.0
 12
0.0
 22
0.0
 32
0.0
 14
-1.000000000000018
 24
-12.0
 34
0.0
 15
1.000000000000018
 25
12.0
 35
0.0
146
0.0
 13
0.0
 23
0.0
 33
0.0
 16
1.0
 26
0.0
 36
0.0
 17
0.0
 27
1.0
 37
0.0
 76
     0
330
1F
331
29
  0
MATERIAL
  5
3D
102
{ACAD_REACTORS
330
3B
102
}
102
{ACAD_XDICTIONARY
360
1D1
102
}
330
3B
100
AcDbMaterial
  1
ByBlock
  0
MATERIAL
  5
3C
102
{ACAD_REACTORS
330
3B
102
}
102
{ACAD_XDICTIONARY
360
1CF
102
}
330
3B
100
AcDbMaterial
  1
ByLayer
  0
MATERIAL
  5
3E
102
{ACAD_REACTORS
330
3B
102
}
102
{ACAD_XDICTIONARY
360
1D3
102
}
330
3B
100
AcDbMaterial
  1
Global
  0
MLINESTYLE
  5
18
102
{ACAD_REACTORS
330
17
102
}
330
17
100
AcDbMlineStyle
  2
Standard
 70
     0
  3

 62
   256
 51
90.0
 52
90.0
 71
     2
 49
0.5
 62
   256
  6
BYLAYER
 49
-0.5
 62
   256
  6
BYLAYER
  0
ACDBPLACEHOLDER
  5
F
102
{ACAD_REACTORS
330
E
102
}
330
E
  0
VISUALSTYLE
  5
2F
102
{ACAD_REACTORS
330
2A
102
}
102
{ACAD_XDICTIONARY
360
1B7
102
}
330
2A
100
AcDbVisualStyle
  2
2dWireframe
 70
     4
 71
     0
 72
     2
 73
     0
 90
        0
 40
-0.6
 41
-30.0
 62
     5
 63
     7
 74
     1
 91
        4
 64
     7
 65
   257
 75
     1
175
     1
 42
1.0
 92
        0
 66
   257
 43
1.0
 76
     1
 77
     6
 78
     2
 67
     7
 79
     5
170
     0
171
     0
290
     0
174
     0
 93
        1
 44
0.0
173
     0
291
     0
 45
0.0
1001
ACAD
1000
AcDbSavedByObjectVersion
1070
     0
  0
VISUALSTYLE
  5
31
102
{ACAD_REACTORS
330
2A
102
}
102
{ACAD_XDICTIONARY
360
1BB
102
}
330
2A
100
AcDbVisualStyle
  2
3D Hidden
 70
     6
 71
     1
 72
     2
 73
     2
 90
        0
 40
-0.6
 41
-30.0
 62
     5
 63
     7
 74
     2
 91
        2
 64
     7
 65
   257
 75
     2
175
     1
 42
40.0
 92
        0
 66
   257
 43
1.0
 76
     1
 77
     6
 78
     2
 67
     7
 79
     3
170
     0
171
     0
290
     0
174
     0
 93
        1
 44
0.0
173
     0
291
     0
 45
0.0
1001
ACAD
1000
AcDbSavedByObjectVersion
1070
     0
  0
VISUALSTYLE
  5
30
102
{ACAD_REACTORS
330
2A
102
}
102
{ACAD_XDICTIONARY
360
1B9
102
}
330
2A
100
AcDbVisualStyle
  2
3dWireframe
 70
     5
 71
     0
 72
     2
 73
     0
 90
        0
 40
-0.6
 41
-30.0
 62
     5
 63
     7
 74
     1
 91
        4
 64
     7
 65
   257
 75
     1
175
     1
 42
1.0
 92
        0
 66
   257
 43
1.0
 76
     1
 77
     6
 78
     2
 67
     7
 79
     5
170
     0
171
     0
290
     0
174
     0
 93
        1
 44
0.0
173
     0
291
     0
 45
0.0
1001
ACAD
1000
AcDbSavedByObjectVersion
1070
     0
  0
VISUALSTYLE
  5
32
102
{ACAD_REACTORS
330
2A
102
}
102
{ACAD_XDICTIONARY
360
1BD
102
}
330
2A
100
AcDbVisualStyle
  2
Basic
 70
     7
 71
     1
 72
     0
 73
     1
 90
        0
 40
-0.6
 41
-30.0
 62
     5
 63
     7
 74
     0
 91
        4
 64
     7
 65
   257
 75
     1
175
     1
 42
1.0
 92
        8
 66
     7
 43
1.0
 76
     1
 77
     6
 78
     2
 67
     7
 79
     5
170
     0
171
     0
290
     0
174
     0
 93
        1
 44
0.0
173
     0
291
     1
 45
0.0
1001
ACAD
1000
AcDbSavedByObjectVersion
1070
     0
  0
VISUALSTYLE
  5
36
102
{ACAD_REACTORS
330
2A
102
}
102
{ACAD_XDICTIONARY
360
1C5
102
}
330
2A
100
AcDbVisualStyle
  2
Brighten
 70
    12
 71
     2
 72
     2
 73
     0
 90
        0
 40
-0.6
 41
-30.0
 62
     5
 63
     7
 74
     1
 91
        4
 64
     7
 65
   257
 75
     1
175
     1
 42
1.0
 92
        8
 66
     7
 43
1.0
 76
     1
 77
     6
 78
     2
 67
     7
 79
     5
170
     0
171
     0
290
     0
174
     0
 93
        1
 44
50.0
173
     0
291
     1
 45
0.0
1001
ACAD
1000
AcDbSavedByObjectVersion
1070
     0
  0
VISUALSTYLE
  5
3A
102
{ACAD_REACTORS
330
2A
102
}
102
{ACAD_XDICTIONARY
360
1CD
102
}
330
2A
100
AcDbVisualStyle
  2
ColorChange
 70
    16
 71
     2
 72
     2
 73
     3
 90
        0
 40
-0.6
 41
-30.0
 62
     5
 63
     8
 74
     1
 91
        4
 64
     7
 65
   257
 75
     1
175
     1
 42
1.0
 92
        8
 66
     8
 43
1.0
 76
     1
 77
     6
 78
     2
 67
     7
 79
     5
170
     0
171
     0
290
     0
174
     0
 93
        1
 44
0.0
173
     0
291
     1
 45
0.0
1001
ACAD
1000
AcDbSavedByObjectVersion
1070
     0
  0
VISUALSTYLE
  5
34
102
{ACAD_REACTORS
330
2A
102
}
102
{ACAD_XDICTIONARY
360
1C1
102
}
330
2A
100
AcDbVisualStyle
  2
Conceptual
 70
     9
 71
     3
 72
     2
 73
     0
 90
        0
 40
-0.6
 41
-30.0
 62
     5
 63
     7
 74
     2
 91
        2
 64
     7
 65
   257
 75
     1
175
     1
 42
40.0
 92
        8
 66
     7
 43
1.0
 76
     1
 77
     6
 78
     2
 67
     7
 79
     3
170
     0
171
     0
290
     0
174
     0
 93
        1
 44
0.0
173
     0
291
     0
 45
0.0
1001
ACAD
1000
AcDbSavedByObjectVersion
1070
     0
  0
VISUALSTYLE
  5
35
102
{ACAD_REACTORS
330
2A
102
}
102
{ACAD_XDICTIONARY
360
1C3
102
}
330
2A
100
AcDbVisualStyle
  2
Dim
 70
    11
 71
     2
 72
     2
 73
     0
 90
        0
 40
-0.6
 41
-30.0
 62
     5
 63
     7
 74
     1
 91
        4
 64
     7
 65
   257
 75
     1
175
     1
 42
1.0
 92
        8
 66
     7
 43
1.0
 76
     1
 77
     6
 78
     2
 67
     7
 79
     5
170
     0
171
     0
290
     0
174
     0
 93
        1
 44
-50.0
173
     0
291
     1
 45
0.0
1001
ACAD
1000
AcDbSavedByObjectVersion
1070
     0
  0
VISUALSTYLE
  5
39
102
{ACAD_REACTORS
330
2A
102
}
102
{ACAD_XDICTIONARY
360
1CB
102
}
330
2A
100
AcDbVisualStyle
  2
Facepattern
 70
    15
 71
     2
 72
     2
 73
     0
 90
        0
 40
-0.6
 41
-30.0
 62
     5
 63
     7
 74
     1
 91
        4
 64
     7
 65
   257
 75
     1
175
     1
 42
1.0
 92
        8
 66
     7
 43
1.0
 76
     1
 77
     6
 78
     2
 67
     7
 79
     5
170
     0
171
     0
290
     0
174
     0
 93
        1
 44
0.0
173
     0
291
     1
 45
0.0
1001
ACAD
1000
AcDbSavedByObjectVersion
1070
     0
  0
VISUALSTYLE
  5
2B
102
{ACAD_REACTORS
330
2A
102
}
102
{ACAD_XDICTIONARY
360
1AF
102
}
330
2A
100
AcDbVisualStyle
  2
Flat
 70
     0
 71
     2
 72
     1
 73
     1
 90
        2
 40
-0.6
 41
30.0
 62
     5
 63
     7
 74
     0
 91
        4
 64
     7
 65
   257
 75
     1
175
     1
 42
1.0
 92
        8
 66
     7
 43
1.0
 76
     1
 77
     6
 78
     2
 67
     7
 79
     5
170
     0
171
     0
290
     0
174
     0
 93
       13
 44
0.0
173
     0
291
     1
 45
0.0
1001
ACAD
1000
AcDbSavedByObjectVersion
1070
     0
  0
VISUALSTYLE
  5
2C
102
{ACAD_REACTORS
330
2A
102
}
102
{ACAD_XDICTIONARY
360
1B1
102
}
330
2A
100
AcDbVisualStyle
  2
FlatWithEdges
 70
     1
 71
     2
 72
     1
 73
     1
 90
        2
 40
-0.6
 41
30.0
 62
     5
 63
     7
 74
     1
 91
        4
 64
     7
 65
   257
 75
     1
175
     1
 42
1.0
 92
        0
 66
   257
 43
1.0
 76
     1
 77
     6
 78
     2
 67
     7
 79
     5
170
     0
171
     0
290
     0
174
     0
 93
       13
 44
0.0
173
     0
291
     1
 45
0.0
1001
ACAD
1000
AcDbSavedByObjectVersion
1070
     0
  0
VISUALSTYLE
  5
2D
102
{ACAD_REACTORS
330
2A
102
}
102
{ACAD_XDICTIONARY
360
1B3
102
}
330
2A
100
AcDbVisualStyle
  2
Gouraud
 70
     2
 71
     2
 72
     2
 73
     1
 90
        2
 40
-0.6
 41
30.0
 62
     5
 63
     7
 74
     0
 91
        4
 64
     7
 65
   257
 75
     1
175
     1
 42
1.0
 92
        0
 66
     7
 43
1.0
 76
     1
 77
     6
 78
     2
 67
     7
 79
     5
170
     0
171
     0
290
     0
174
     0
 93
       13
 44
0.0
173
     0
291
     1
 45
0.0
1001
ACAD
1000
AcDbSavedByObjectVersion
1070
     0
  0
VISUALSTYLE
  5
2E
102
{ACAD_REACTORS
330
2A
102
}
102
{ACAD_XDICTIONARY
360
1B5
102
}
330
2A
100
AcDbVisualStyle
  2
GouraudWithEdges
 70
     3
 71
     2
 72
     2
 73
     1
 90
        2
 40
-0.6
 41
30.0
 62
     5
 63
     7
 74
     1
 91
        4
 64
     7
 65
   257
 75
     1
175
     1
 42
1.0
 92
        0
 66
   257
 43
1.0
 76
     1
 77
     6
 78
     2
 67
     7
 79
     5
170
     0
171
     0
290
     0
174
     0
 93
       13
 44
0.0
173
     0
291
     1
 45
0.0
1001
ACAD
1000
AcDbSavedByObjectVersion
1070
     0
  0
VISUALSTYLE
  5
38
102
{ACAD_REACTORS
330
2A
102
}
102
{ACAD_XDICTIONARY
360
1C9
102
}
330
2A
100
AcDbVisualStyle
  2
Linepattern
 70
    14
 71
     2
 72
     2
 73
     0
 90
        0
 40
-0.6
 41
-30.0
 62
     5
 63
     7
 74
     1
 91
        4
 64
     7
 65
   257
 75
     7
175
     7
 42
1.0
 92
        8
 66
     7
 43
1.0
 76
     1
 77
     6
 78
     2
 67
     7
 79
     5
170
     0
171
     0
290
     0
174
     0
 93
        1
 44
0.0
173
     0
291
     1
 45
0.0
1001
ACAD
1000
AcDbSavedByObjectVersion
1070
     0
  0
VISUALSTYLE
  5
33
102
{ACAD_REACTORS
330
2A
102
}
102
{ACAD_XDICTIONARY
360
1BF
102
}
330
2A
100
AcDbVisualStyle
  2
Realistic
 70
     8
 71
     2
 72
     2
 73
     0
 90
        0
 40
-0.6
 41
-30.0
 62
     5
 63
     7
 74
     1
 91
        0
 64
     7
 65
   257
 75
     1
175
     1
 42
1.0
 92
        8
 66
     8
 43
1.0
 76
     1
 77
     6
 78
     2
 67
     7
 79
     5
170
     0
171
     0
290
     0
174
     0
 93
       13
 44
0.0
173
     0
291
     0
 45
0.0
1001
ACAD
1000
AcDbSavedByObjectVersion
1070
     0
  0
VISUALSTYLE
  5
37
102
{ACAD_REACTORS
330
2A
102
}
102
{ACAD_XDICTIONARY
360
1C7
102
}
330
2A
100
AcDbVisualStyle
  2
Thicken
 70
    13
 71
     2
 72
     2
 73
     0
 90
        0
 40
-0.6
 41
-30.0
 62
     5
 63
     7
 74
     1
 91
        4
 64
     7
 65
   257
 75
     1
175
     1
 42
1.0
 92
       12
 66
     7
 43
1.0
 76
     1
 77
     6
 78
     2
 67
     7
 79
     5
170
     0
171
     0
290
     0
174
     0
 93
        1
 44
0.0
173
     0
291
     1
 45
0.0
1001
ACAD
1000
AcDbSavedByObjectVersion
1070
     0
  0
DICTIONARYVAR
  5
1AD
102
{ACAD_REACTORS
330
1AA
102
}
330
1AA
100
DictionaryVariables
280
     0
  1
1
  0
DICTIONARYVAR
  5
1AE
102
{ACAD_REACTORS
330
1AA
102
}
330
1AA
100
DictionaryVariables
280
     0
  1
1
  0
DICTIONARY
  5
1D1
330
3D
100
AcDbDictionary
280
     1
281
     1
  3
ACAD_XREC_ROUNDTRIP
360
1D2
  0
DICTIONARY
  5
1CF
330
3C
100
AcDbDictionary
280
     1
281
     1
  3
ACAD_XREC_ROUNDTRIP
360
1D0
  0
DICTIONARY
  5
1D3
330
3E
100
AcDbDictionary
280
     1
281
     1
  3
ACAD_XREC_ROUNDTRIP
360
1D4
  0
DICTIONARY
  5
1B7
330
2F
100
AcDbDictionary
280
     1
281
     1
  3
ACAD_XREC_ROUNDTRIP
360
1B8
  0
DICTIONARY
  5
1BB
330
31
100
AcDbDictionary
280
     1
281
     1
  3
ACAD_XREC_ROUNDTRIP
360
1BC
  0
DICTIONARY
  5
1B9
330
30
100
AcDbDictionary
280
     1
281
     1
  3
ACAD_XREC_ROUNDTRIP
360
1BA
  0
DICTIONARY
  5
1BD
330
32
100
AcDbDictionary
280
     1
281
     1
  3
ACAD_XREC_ROUNDTRIP
360
1BE
  0
DICTIONARY
  5
1C5
330
36
100
AcDbDictionary
280
     1
281
     1
  3
ACAD_XREC_ROUNDTRIP
360
1C6
  0
DICTIONARY
  5
1CD
330
3A
100
AcDbDictionary
280
     1
281
     1
  3
ACAD_XREC_ROUNDTRIP
360
1CE
  0
DICTIONARY
  5
1C1
330
34
100
AcDbDictionary
280
     1
281
     1
  3
ACAD_XREC_ROUNDTRIP
360
1C2
  0
DICTIONARY
  5
1C3
330
35
100
AcDbDictionary
280
     1
281
     1
  3
ACAD_XREC_ROUNDTRIP
360
1C4
  0
DICTIONARY
  5
1CB
330
39
100
AcDbDictionary
280
     1
281
     1
  3
ACAD_XREC_ROUNDTRIP
360
1CC
  0
DICTIONARY
  5
1AF
330
2B
100
AcDbDictionary
280
     1
281
     1
  3
ACAD_XREC_ROUNDTRIP
360
1B0
  0
DICTIONARY
  5
1B1
330
2C
100
AcDbDictionary
280
     1
281
     1
  3
ACAD_XREC_ROUNDTRIP
360
1B2
  0
DICTIONARY
  5
1B3
330
2D
100
AcDbDictionary
280
     1
281
     1
  3
ACAD_XREC_ROUNDTRIP
360
1B4
  0
DICTIONARY
  5
1B5
330
2E
100
AcDbDictionary
280
     1
281
     1
  3
ACAD_XREC_ROUNDTRIP
360
1B6
  0
DICTIONARY
  5
1C9
330
38
100
AcDbDictionary
280
     1
281
     1
  3
ACAD_XREC_ROUNDTRIP
360
1CA
  0
DICTIONARY
  5
1BF
330
33
100
AcDbDictionary
280
     1
281
     1
  3
ACAD_XREC_ROUNDTRIP
360
1C0
  0
DICTIONARY
  5
1C7
330
37
100
AcDbDictionary
280
     1
281
     1
  3
ACAD_XREC_ROUNDTRIP
360
1C8
  0
XRECORD
  5
1D2
102
{ACAD_REACTORS
330
1D1
102
}
330
1D1
100
AcDbXrecord
280
     1
102
MATERIAL
148
0.0
149
0.0
149
0.0
 93
        0
 94
      127
282
     0
 72
     1
 77
     1
171
     1
175
     1
179
     1
273
     0
  0
XRECORD
  5
1D0
102
{ACAD_REACTORS
330
1CF
102
}
330
1CF
100
AcDbXrecord
280
     1
102
MATERIAL
148
0.0
149
0.0
149
0.0
 93
        0
 94
      127
282
     0
 72
     1
 77
     1
171
     1
175
     1
179
     1
273
     0
  0
XRECORD
  5
1D4
102
{ACAD_REACTORS
330
1D3
102
}
330
1D3
100
AcDbXrecord
280
     1
102
MATERIAL
148
0.0
149
0.0
149
0.0
 93
        0
 94
      127
282
     0
 72
     1
 77
     1
171
     1
175
     1
179
     1
273
     0
  0
XRECORD
  5
1B8
102
{ACAD_REACTORS
330
1B7
102
}
330
1B7
100
AcDbXrecord
280
     1
102
RTVSPropertyOp0
 70
     1
102
RTVSPropertyOp1
 70
     1
102
RTVSPropertyOp2
 70
     1
102
RTVSPropertyOp3
 70
     1
102
RTVSPropertyOp4
 70
     1
102
RTVSPropertyOp5
 70
     1
102
RTVSPropertyOp6
 70
     1
102
RTVSPropertyOp7
 70
     1
102
RTVSPropertyOp8
 70
     1
102
RTVSPropertyOp9
 70
     1
102
RTVSPropertyOp10
 70
     1
102
RTVSPropertyOp11
 70
     1
102
RTVSPropertyOp12
 70
     1
102
RTVSPropertyOp13
 70
     1
102
RTVSPropertyOp14
 70
     1
102
RTVSPropertyOp15
 70
     1
102
RTVSPropertyOp16
 70
     1
102
RTVSPropertyOp17
 70
     1
102
RTVSPropertyOp18
 70
     1
102
RTVSPropertyOp19
 70
     1
102
RTVSPropertyOp20
 70
     1
102
RTVSPropertyOp21
 70
     1
102
RTVSPropertyOp22
 70
     1
102
RTVSPropertyOp23
 70
     1
102
RTVSPropertyOp24
 70
     1
102
RTVSPropertyOp25
 70
     1
102
RTVSPropertyOp26
 70
     1
102
RTVSPropertyOp27
 70
     1
102
RTVSPropertyOp28
 70
     1
102
RTVSPropertyOp29
 70
     1
102
RTVSPropertyOp30
 70
     1
102
RTVSPropertyOp31
 70
     1
102
RTVSPropertyOp32
 70
     1
  0
XRECORD
  5
1BC
102
{ACAD_REACTORS
330
1BB
102
}
330
1BB
100
AcDbXrecord
280
     1
102
RTVSPropertyOp0
 70
     1
102
RTVSPropertyOp1
 70
     1
102
RTVSPropertyOp2
 70
     1
102
RTVSPropertyOp3
 70
     1
102
RTVSPropertyOp4
 70
     1
102
RTVSPropertyOp5
 70
     1
102
RTVSPropertyOp6
 70
     1
102
RTVSPropertyOp7
 70
     1
102
RTVSPropertyOp8
 70
     1
102
RTVSPropertyOp9
 70
     1
102
RTVSPropertyOp10
 70
     1
102
RTVSPropertyOp11
 70
     1
102
RTVSPropertyOp12
 70
     1
102
RTVSPropertyOp13
 70
     1
102
RTVSPropertyOp14
 70
     1
102
RTVSPropertyOp15
 70
     1
102
RTVSPropertyOp16
 70
     1
102
RTVSPropertyOp17
 70
     1
102
RTVSPropertyOp18
 70
     1
102
RTVSPropertyOp19
 70
     1
102
RTVSPropertyOp20
 70
     1
102
RTVSPropertyOp21
 70
     1
102
RTVSPropertyOp22
 70
     1
102
RTVSPropertyOp23
 70
     1
102
RTVSPropertyOp24
 70
     1
102
RTVSPropertyOp25
 70
     1
102
RTVSPropertyOp26
 70
     1
102
RTVSPropertyOp27
 70
     1
102
RTVSPropertyOp28
 70
     1
102
RTVSPropertyOp29
 70
     1
102
RTVSPropertyOp30
 70
     1
102
RTVSPropertyOp31
 70
     1
102
RTVSPropertyOp32
 70
     1
  0
XRECORD
  5
1BA
102
{ACAD_REACTORS
330
1B9
102
}
330
1B9
100
AcDbXrecord
280
     1
102
RTVSPropertyOp0
 70
     1
102
RTVSPropertyOp1
 70
     1
102
RTVSPropertyOp2
 70
     1
102
RTVSPropertyOp3
 70
     1
102
RTVSPropertyOp4
 70
     1
102
RTVSPropertyOp5
 70
     1
102
RTVSPropertyOp6
 70
     1
102
RTVSPropertyOp7
 70
     1
102
RTVSPropertyOp8
 70
     1
102
RTVSPropertyOp9
 70
     1
102
RTVSPropertyOp10
 70
     1
102
RTVSPropertyOp11
 70
     1
102
RTVSPropertyOp12
 70
     1
102
RTVSPropertyOp13
 70
     1
102
RTVSPropertyOp14
 70
     1
102
RTVSPropertyOp15
 70
     1
102
RTVSPropertyOp16
 70
     1
102
RTVSPropertyOp17
 70
     1
102
RTVSPropertyOp18
 70
     1
102
RTVSPropertyOp19
 70
     1
102
RTVSPropertyOp20
 70
     1
102
RTVSPropertyOp21
 70
     1
102
RTVSPropertyOp22
 70
     1
102
RTVSPropertyOp23
 70
     1
102
RTVSPropertyOp24
 70
     1
102
RTVSPropertyOp25
 70
     1
102
RTVSPropertyOp26
 70
     1
102
RTVSPropertyOp27
 70
     1
102
RTVSPropertyOp28
 70
     1
102
RTVSPropertyOp29
 70
     1
102
RTVSPropertyOp30
 70
     1
102
RTVSPropertyOp31
 70
     1
102
RTVSPropertyOp32
 70
     1
  0
XRECORD
  5
1BE
102
{ACAD_REACTORS
330
1BD
102
}
330
1BD
100
AcDbXrecord
280
     1
102
RTVSPropertyOp0
 70
     1
102
RTVSPropertyOp1
 70
     1
102
RTVSPropertyOp2
 70
     1
102
RTVSPropertyOp3
 70
     1
102
RTVSPropertyOp4
 70
     1
102
RTVSPropertyOp5
 70
     1
102
RTVSPropertyOp6
 70
     1
102
RTVSPropertyOp7
 70
     1
102
RTVSPropertyOp8
 70
     1
102
RTVSPropertyOp9
 70
     1
102
RTVSPropertyOp10
 70
     1
102
RTVSPropertyOp11
 70
     1
102
RTVSPropertyOp12
 70
     1
102
RTVSPropertyOp13
 70
     1
102
RTVSPropertyOp14
 70
     1
102
RTVSPropertyOp15
 70
     1
102
RTVSPropertyOp16
 70
     1
102
RTVSPropertyOp17
 70
     1
102
RTVSPropertyOp18
 70
     1
102
RTVSPropertyOp19
 70
     1
102
RTVSPropertyOp20
 70
     1
102
RTVSPropertyOp21
 70
     1
102
RTVSPropertyOp22
 70
     1
102
RTVSPropertyOp23
 70
     1
102
RTVSPropertyOp24
 70
     1
102
RTVSPropertyOp25
 70
     1
102
RTVSPropertyOp26
 70
     1
102
RTVSPropertyOp27
 70
     1
102
RTVSPropertyOp28
 70
     1
102
RTVSPropertyOp29
 70
     1
102
RTVSPropertyOp30
 70
     1
102
RTVSPropertyOp31
 70
     1
102
RTVSPropertyOp32
 70
     1
  0
XRECORD
  5
1C6
102
{ACAD_REACTORS
330
1C5
102
}
330
1C5
100
AcDbXrecord
280
     1
102
RTVSPropertyOp0
 70
     1
102
RTVSPropertyOp1
 70
     1
102
RTVSPropertyOp2
 70
     1
102
RTVSPropertyOp3
 70
     1
102
RTVSPropertyOp4
 70
     1
102
RTVSPropertyOp5
 70
     1
102
RTVSPropertyOp6
 70
     1
102
RTVSPropertyOp7
 70
     1
102
RTVSPropertyOp8
 70
     1
102
RTVSPropertyOp9
 70
     1
102
RTVSPropertyOp10
 70
     1
102
RTVSPropertyOp11
 70
     1
102
RTVSPropertyOp12
 70
     1
102
RTVSPropertyOp13
 70
     1
102
RTVSPropertyOp14
 70
     1
102
RTVSPropertyOp15
 70
     1
102
RTVSPropertyOp16
 70
     1
102
RTVSPropertyOp17
 70
     1
102
RTVSPropertyOp18
 70
     1
102
RTVSPropertyOp19
 70
     1
102
RTVSPropertyOp20
 70
     1
102
RTVSPropertyOp21
 70
     1
102
RTVSPropertyOp22
 70
     1
102
RTVSPropertyOp23
 70
     1
102
RTVSPropertyOp24
 70
     1
102
RTVSPropertyOp25
 70
     1
102
RTVSPropertyOp26
 70
     1
102
RTVSPropertyOp27
 70
     1
102
RTVSPropertyOp28
 70
     1
102
RTVSPropertyOp29
 70
     1
102
RTVSPropertyOp30
 70
     1
102
RTVSPropertyOp31
 70
     1
102
RTVSPropertyOp32
 70
     1
  0
XRECORD
  5
1CE
102
{ACAD_REACTORS
330
1CD
102
}
330
1CD
100
AcDbXrecord
280
     1
102
RTVSPropertyOp0
 70
     1
102
RTVSPropertyOp1
 70
     1
102
RTVSPropertyOp2
 70
     1
102
RTVSPropertyOp3
 70
     1
102
RTVSPropertyOp4
 70
     1
102
RTVSPropertyOp5
 70
     1
102
RTVSPropertyOp6
 70
     1
102
RTVSPropertyOp7
 70
     1
102
RTVSPropertyOp8
 70
     1
102
RTVSPropertyOp9
 70
     1
102
RTVSPropertyOp10
 70
     1
102
RTVSPropertyOp11
 70
     1
102
RTVSPropertyOp12
 70
     1
102
RTVSPropertyOp13
 70
     1
102
RTVSPropertyOp14
 70
     1
102
RTVSPropertyOp15
 70
     1
102
RTVSPropertyOp16
 70
     1
102
RTVSPropertyOp17
 70
     1
102
RTVSPropertyOp18
 70
     1
102
RTVSPropertyOp19
 70
     1
102
RTVSPropertyOp20
 70
     1
102
RTVSPropertyOp21
 70
     1
102
RTVSPropertyOp22
 70
     1
102
RTVSPropertyOp23
 70
     1
102
RTVSPropertyOp24
 70
     1
102
RTVSPropertyOp25
 70
     1
102
RTVSPropertyOp26
 70
     1
102
RTVSPropertyOp27
 70
     1
102
RTVSPropertyOp28
 70
     1
102
RTVSPropertyOp29
 70
     1
102
RTVSPropertyOp30
 70
     1
102
RTVSPropertyOp31
 70
     1
102
RTVSPropertyOp32
 70
     1
  0
XRECORD
  5
1C2
102
{ACAD_REACTORS
330
1C1
102
}
330
1C1
100
AcDbXrecord
280
     1
102
RTVSPropertyOp0
 70
     1
102
RTVSPropertyOp1
 70
     1
102
RTVSPropertyOp2
 70
     1
102
RTVSPropertyOp3
 70
     1
102
RTVSPropertyOp4
 70
     1
102
RTVSPropertyOp5
 70
     1
102
RTVSPropertyOp6
 70
     1
102
RTVSPropertyOp7
 70
     1
102
RTVSPropertyOp8
 70
     1
102
RTVSPropertyOp9
 70
     1
102
RTVSPropertyOp10
 70
     1
102
RTVSPropertyOp11
 70
     1
102
RTVSPropertyOp12
 70
     1
102
RTVSPropertyOp13
 70
     1
102
RTVSPropertyOp14
 70
     1
102
RTVSPropertyOp15
 70
     1
102
RTVSPropertyOp16
 70
     1
102
RTVSPropertyOp17
 70
     1
102
RTVSPropertyOp18
 70
     1
102
RTVSPropertyOp19
 70
     1
102
RTVSPropertyOp20
 70
     1
102
RTVSPropertyOp21
 70
     1
102
RTVSPropertyOp22
 70
     1
102
RTVSPropertyOp23
 70
     1
102
RTVSPropertyOp24
 70
     1
102
RTVSPropertyOp25
 70
     1
102
RTVSPropertyOp26
 70
     1
102
RTVSPropertyOp27
 70
     1
102
RTVSPropertyOp28
 70
     1
102
RTVSPropertyOp29
 70
     1
102
RTVSPropertyOp30
 70
     1
102
RTVSPropertyOp31
 70
     1
102
RTVSPropertyOp32
 70
     1
  0
XRECORD
  5
1C4
102
{ACAD_REACTORS
330
1C3
102
}
330
1C3
100
AcDbXrecord
280
     1
102
RTVSPropertyOp0
 70
     1
102
RTVSPropertyOp1
 70
     1
102
RTVSPropertyOp2
 70
     1
102
RTVSPropertyOp3
 70
     1
102
RTVSPropertyOp4
 70
     1
102
RTVSPropertyOp5
 70
     1
102
RTVSPropertyOp6
 70
     1
102
RTVSPropertyOp7
 70
     1
102
RTVSPropertyOp8
 70
     1
102
RTVSPropertyOp9
 70
     1
102
RTVSPropertyOp10
 70
     1
102
RTVSPropertyOp11
 70
     1
102
RTVSPropertyOp12
 70
     1
102
RTVSPropertyOp13
 70
     1
102
RTVSPropertyOp14
 70
     1
102
RTVSPropertyOp15
 70
     1
102
RTVSPropertyOp16
 70
     1
102
RTVSPropertyOp17
 70
     1
102
RTVSPropertyOp18
 70
     1
102
RTVSPropertyOp19
 70
     1
102
RTVSPropertyOp20
 70
     1
102
RTVSPropertyOp21
 70
     1
102
RTVSPropertyOp22
 70
     1
102
RTVSPropertyOp23
 70
     1
102
RTVSPropertyOp24
 70
     1
102
RTVSPropertyOp25
 70
     1
102
RTVSPropertyOp26
 70
     1
102
RTVSPropertyOp27
 70
     1
102
RTVSPropertyOp28
 70
     1
102
RTVSPropertyOp29
 70
     1
102
RTVSPropertyOp30
 70
     1
102
RTVSPropertyOp31
 70
     1
102
RTVSPropertyOp32
 70
     1
  0
XRECORD
  5
1CC
102
{ACAD_REACTORS
330
1CB
102
}
330
1CB
100
AcDbXrecord
280
     1
102
RTVSPropertyOp0
 70
     1
102
RTVSPropertyOp1
 70
     1
102
RTVSPropertyOp2
 70
     1
102
RTVSPropertyOp3
 70
     1
102
RTVSPropertyOp4
 70
     1
102
RTVSPropertyOp5
 70
     1
102
RTVSPropertyOp6
 70
     1
102
RTVSPropertyOp7
 70
     1
102
RTVSPropertyOp8
 70
     1
102
RTVSPropertyOp9
 70
     1
102
RTVSPropertyOp10
 70
     1
102
RTVSPropertyOp11
 70
     1
102
RTVSPropertyOp12
 70
     1
102
RTVSPropertyOp13
 70
     1
102
RTVSPropertyOp14
 70
     1
102
RTVSPropertyOp15
 70
     1
102
RTVSPropertyOp16
 70
     1
102
RTVSPropertyOp17
 70
     1
102
RTVSPropertyOp18
 70
     1
102
RTVSPropertyOp19
 70
     1
102
RTVSPropertyOp20
 70
     1
102
RTVSPropertyOp21
 70
     1
102
RTVSPropertyOp22
 70
     1
102
RTVSPropertyOp23
 70
     1
102
RTVSPropertyOp24
 70
     1
102
RTVSPropertyOp25
 70
     1
102
RTVSPropertyOp26
 70
     1
102
RTVSPropertyOp27
 70
     1
102
RTVSPropertyOp28
 70
     1
102
RTVSPropertyOp29
 70
     1
102
RTVSPropertyOp30
 70
     1
102
RTVSPropertyOp31
 70
     1
102
RTVSPropertyOp32
 70
     1
  0
XRECORD
  5
1B0
102
{ACAD_REACTORS
330
1AF
102
}
330
1AF
100
AcDbXrecord
280
     1
102
RTVSPropertyOp0
 70
     1
102
RTVSPropertyOp1
 70
     1
102
RTVSPropertyOp2
 70
     1
102
RTVSPropertyOp3
 70
     1
102
RTVSPropertyOp4
 70
     1
102
RTVSPropertyOp5
 70
     1
102
RTVSPropertyOp6
 70
     1
102
RTVSPropertyOp7
 70
     1
102
RTVSPropertyOp8
 70
     1
102
RTVSPropertyOp9
 70
     1
102
RTVSPropertyOp10
 70
     1
102
RTVSPropertyOp11
 70
     1
102
RTVSPropertyOp12
 70
     1
102
RTVSPropertyOp13
 70
     1
102
RTVSPropertyOp14
 70
     1
102
RTVSPropertyOp15
 70
     1
102
RTVSPropertyOp16
 70
     1
102
RTVSPropertyOp17
 70
     1
102
RTVSPropertyOp18
 70
     1
102
RTVSPropertyOp19
 70
     1
102
RTVSPropertyOp20
 70
     1
102
RTVSPropertyOp21
 70
     1
102
RTVSPropertyOp22
 70
     1
102
RTVSPropertyOp23
 70
     1
102
RTVSPropertyOp24
 70
     1
102
RTVSPropertyOp25
 70
     1
102
RTVSPropertyOp26
 70
     1
102
RTVSPropertyOp27
 70
     1
102
RTVSPropertyOp28
 70
     1
102
RTVSPropertyOp29
 70
     1
102
RTVSPropertyOp30
 70
     1
102
RTVSPropertyOp31
 70
     1
102
RTVSPropertyOp32
 70
     1
  0
XRECORD
  5
1B2
102
{ACAD_REACTORS
330
1B1
102
}
330
1B1
100
AcDbXrecord
280
     1
102
RTVSPropertyOp0
 70
     1
102
RTVSPropertyOp1
 70
     1
102
RTVSPropertyOp2
 70
     1
102
RTVSPropertyOp3
 70
     1
102
RTVSPropertyOp4
 70
     1
102
RTVSPropertyOp5
 70
     1
102
RTVSPropertyOp6
 70
     1
102
RTVSPropertyOp7
 70
     1
102
RTVSPropertyOp8
 70
     1
102
RTVSPropertyOp9
 70
     1
102
RTVSPropertyOp10
 70
     1
102
RTVSPropertyOp11
 70
     1
102
RTVSPropertyOp12
 70
     1
102
RTVSPropertyOp13
 70
     1
102
RTVSPropertyOp14
 70
     1
102
RTVSPropertyOp15
 70
     1
102
RTVSPropertyOp16
 70
     1
102
RTVSPropertyOp17
 70
     1
102
RTVSPropertyOp18
 70
     1
102
RTVSPropertyOp19
 70
     1
102
RTVSPropertyOp20
 70
     1
102
RTVSPropertyOp21
 70
     1
102
RTVSPropertyOp22
 70
     1
102
RTVSPropertyOp23
 70
     1
102
RTVSPropertyOp24
 70
     1
102
RTVSPropertyOp25
 70
     1
102
RTVSPropertyOp26
 70
     1
102
RTVSPropertyOp27
 70
     1
102
RTVSPropertyOp28
 70
     1
102
RTVSPropertyOp29
 70
     1
102
RTVSPropertyOp30
 70
     1
102
RTVSPropertyOp31
 70
     1
102
RTVSPropertyOp32
 70
     1
  0
XRECORD
  5
1B4
102
{ACAD_REACTORS
330
1B3
102
}
330
1B3
100
AcDbXrecord
280
     1
102
RTVSPropertyOp0
 70
     1
102
RTVSPropertyOp1
 70
     1
102
RTVSPropertyOp2
 70
     1
102
RTVSPropertyOp3
 70
     1
102
RTVSPropertyOp4
 70
     1
102
RTVSPropertyOp5
 70
     1
102
RTVSPropertyOp6
 70
     1
102
RTVSPropertyOp7
 70
     1
102
RTVSPropertyOp8
 70
     1
102
RTVSPropertyOp9
 70
     1
102
RTVSPropertyOp10
 70
     1
102
RTVSPropertyOp11
 70
     1
102
RTVSPropertyOp12
 70
     1
102
RTVSPropertyOp13
 70
     1
102
RTVSPropertyOp14
 70
     1
102
RTVSPropertyOp15
 70
     1
102
RTVSPropertyOp16
 70
     1
102
RTVSPropertyOp17
 70
     1
102
RTVSPropertyOp18
 70
     1
102
RTVSPropertyOp19
 70
     1
102
RTVSPropertyOp20
 70
     1
102
RTVSPropertyOp21
 70
     1
102
RTVSPropertyOp22
 70
     1
102
RTVSPropertyOp23
 70
     1
102
RTVSPropertyOp24
 70
     1
102
RTVSPropertyOp25
 70
     1
102
RTVSPropertyOp26
 70
     1
102
RTVSPropertyOp27
 70
     1
102
RTVSPropertyOp28
 70
     1
102
RTVSPropertyOp29
 70
     1
102
RTVSPropertyOp30
 70
     1
102
RTVSPropertyOp31
 70
     1
102
RTVSPropertyOp32
 70
     1
  0
XRECORD
  5
1B6
102
{ACAD_REACTORS
330
1B5
102
}
330
1B5
100
AcDbXrecord
280
     1
102
RTVSPropertyOp0
 70
     1
102
RTVSPropertyOp1
 70
     1
102
RTVSPropertyOp2
 70
     1
102
RTVSPropertyOp3
 70
     1
102
RTVSPropertyOp4
 70
     1
102
RTVSPropertyOp5
 70
     1
102
RTVSPropertyOp6
 70
     1
102
RTVSPropertyOp7
 70
     1
102
RTVSPropertyOp8
 70
     1
102
RTVSPropertyOp9
 70
     1
102
RTVSPropertyOp10
 70
     1
102
RTVSPropertyOp11
 70
     1
102
RTVSPropertyOp12
 70
     1
102
RTVSPropertyOp13
 70
     1
102
RTVSPropertyOp14
 70
     1
102
RTVSPropertyOp15
 70
     1
102
RTVSPropertyOp16
 70
     1
102
RTVSPropertyOp17
 70
     1
102
RTVSPropertyOp18
 70
     1
102
RTVSPropertyOp19
 70
     1
102
RTVSPropertyOp20
 70
     1
102
RTVSPropertyOp21
 70
     1
102
RTVSPropertyOp22
 70
     1
102
RTVSPropertyOp23
 70
     1
102
RTVSPropertyOp24
 70
     1
102
RTVSPropertyOp25
 70
     1
102
RTVSPropertyOp26
 70
     1
102
RTVSPropertyOp27
 70
     1
102
RTVSPropertyOp28
 70
     1
102
RTVSPropertyOp29
 70
     1
102
RTVSPropertyOp30
 70
     1
102
RTVSPropertyOp31
 70
     1
102
RTVSPropertyOp32
 70
     1
  0
XRECORD
  5
1CA
102
{ACAD_REACTORS
330
1C9
102
}
330
1C9
100
AcDbXrecord
280
     1
102
RTVSPropertyOp0
 70
     1
102
RTVSPropertyOp1
 70
     1
102
RTVSPropertyOp2
 70
     1
102
RTVSPropertyOp3
 70
     1
102
RTVSPropertyOp4
 70
     1
102
RTVSPropertyOp5
 70
     1
102
RTVSPropertyOp6
 70
     1
102
RTVSPropertyOp7
 70
     1
102
RTVSPropertyOp8
 70
     1
102
RTVSPropertyOp9
 70
     1
102
RTVSPropertyOp10
 70
     1
102
RTVSPropertyOp11
 70
     1
102
RTVSPropertyOp12
 70
     1
102
RTVSPropertyOp13
 70
     1
102
RTVSPropertyOp14
 70
     1
102
RTVSPropertyOp15
 70
     1
102
RTVSPropertyOp16
 70
     1
102
RTVSPropertyOp17
 70
     1
102
RTVSPropertyOp18
 70
     1
102
RTVSPropertyOp19
 70
     1
102
RTVSPropertyOp20
 70
     1
102
RTVSPropertyOp21
 70
     1
102
RTVSPropertyOp22
 70
     1
102
RTVSPropertyOp23
 70
     1
102
RTVSPropertyOp24
 70
     1
102
RTVSPropertyOp25
 70
     1
102
RTVSPropertyOp26
 70
     1
102
RTVSPropertyOp27
 70
     1
102
RTVSPropertyOp28
 70
     1
102
RTVSPropertyOp29
 70
     1
102
RTVSPropertyOp30
 70
     1
102
RTVSPropertyOp31
 70
     1
102
RTVSPropertyOp32
 70
     1
  0
XRECORD
  5
1C0
102
{ACAD_REACTORS
330
1BF
102
}
330
1BF
100
AcDbXrecord
280
     1
102
RTVSPropertyOp0
 70
     1
102
RTVSPropertyOp1
 70
     1
102
RTVSPropertyOp2
 70
     1
102
RTVSPropertyOp3
 70
     1
102
RTVSPropertyOp4
 70
     1
102
RTVSPropertyOp5
 70
     1
102
RTVSPropertyOp6
 70
     1
102
RTVSPropertyOp7
 70
     1
102
RTVSPropertyOp8
 70
     1
102
RTVSPropertyOp9
 70
     1
102
RTVSPropertyOp10
 70
     1
102
RTVSPropertyOp11
 70
     1
102
RTVSPropertyOp12
 70
     1
102
RTVSPropertyOp13
 70
     1
102
RTVSPropertyOp14
 70
     1
102
RTVSPropertyOp15
 70
     1
102
RTVSPropertyOp16
 70
     1
102
RTVSPropertyOp17
 70
     1
102
RTVSPropertyOp18
 70
     1
102
RTVSPropertyOp19
 70
     1
102
RTVSPropertyOp20
 70
     1
102
RTVSPropertyOp21
 70
     1
102
RTVSPropertyOp22
 70
     1
102
RTVSPropertyOp23
 70
     1
102
RTVSPropertyOp24
 70
     1
102
RTVSPropertyOp25
 70
     1
102
RTVSPropertyOp26
 70
     1
102
RTVSPropertyOp27
 70
     1
102
RTVSPropertyOp28
 70
     1
102
RTVSPropertyOp29
 70
     1
102
RTVSPropertyOp30
 70
     1
102
RTVSPropertyOp31
 70
     1
102
RTVSPropertyOp32
 70
     1
  0
XRECORD
  5
1C8
102
{ACAD_REACTORS
330
1C7
102
}
330
1C7
100
AcDbXrecord
280
     1
102
RTVSPropertyOp0
 70
     1
102
RTVSPropertyOp1
 70
     1
102
RTVSPropertyOp2
 70
     1
102
RTVSPropertyOp3
 70
     1
102
RTVSPropertyOp4
 70
     1
102
RTVSPropertyOp5
 70
     1
102
RTVSPropertyOp6
 70
     1
102
RTVSPropertyOp7
 70
     1
102
RTVSPropertyOp8
 70
     1
102
RTVSPropertyOp9
 70
     1
102
RTVSPropertyOp10
 70
     1
102
RTVSPropertyOp11
 70
     1
102
RTVSPropertyOp12
 70
     1
102
RTVSPropertyOp13
 70
     1
102
RTVSPropertyOp14
 70
     1
102
RTVSPropertyOp15
 70
     1
102
RTVSPropertyOp16
 70
     1
102
RTVSPropertyOp17
 70
     1
102
RTVSPropertyOp18
 70
     1
102
RTVSPropertyOp19
 70
     1
102
RTVSPropertyOp20
 70
     1
102
RTVSPropertyOp21
 70
     1
102
RTVSPropertyOp22
 70
     1
102
RTVSPropertyOp23
 70
     1
102
RTVSPropertyOp24
 70
     1
102
RTVSPropertyOp25
 70
     1
102
RTVSPropertyOp26
 70
     1
102
RTVSPropertyOp27
 70
     1
102
RTVSPropertyOp28
 70
     1
102
RTVSPropertyOp29
 70
     1
102
RTVSPropertyOp30
 70
     1
102
RTVSPropertyOp31
 70
     1
102
RTVSPropertyOp32
 70
     1
  0
ENDSEC
  0
EOF
